<svg width="181" height="40" viewBox="0 0 181 40" fill="none" xmlns="http://www.w3.org/2000/svg">
<path fill-rule="evenodd" clip-rule="evenodd" d="M72.0778 27.5948C75.8738 27.5948 78.3022 24.8306 78.3022 21.509C78.3022 18.0015 75.8974 15.1211 72.0778 15.1211C70.451 15.1211 69.4136 15.7715 68.6591 16.631H68.4705V10.8936H65.0047V27.2464H67.2917L67.8104 25.7365H68.0226C68.8242 26.898 70.3096 27.5948 72.0778 27.5948ZM51.5917 25.1558L50.6722 27.2464H46.8291L54.2795 11.2652H56.0242L63.4746 27.2464H59.608L58.6885 25.1558H51.5917ZM52.747 22.531H57.5567L55.2462 17.2349H55.0576L52.747 22.531ZM68.3999 21.3696C68.3999 23.0885 69.8145 24.5287 71.6771 24.5287C73.4454 24.5287 74.8836 23.2279 74.8836 21.3696C74.8836 19.4649 73.469 18.1873 71.6771 18.1873C69.8616 18.1873 68.3999 19.581 68.3999 21.3696ZM86.3397 27.5948C89.7348 27.5948 92.3047 25.6669 92.3047 22.229V15.516H88.7682V21.9271C88.7682 23.5763 87.8958 24.459 86.3633 24.459C84.8072 24.459 83.9584 23.5763 83.9584 21.9038V15.4928H80.4218V22.2523C80.4218 25.6436 82.8738 27.5948 86.3397 27.5948ZM98.621 21.1373V27.2464H95.0844V15.4696H97.9137L98.2437 16.8168H98.4559C99.1397 15.8877 100.248 15.1211 102.205 15.1211C105.458 15.1211 107.156 17.0956 107.156 20.0456V27.2464H103.619V20.7889C103.619 19.1164 102.7 18.2337 101.191 18.2337C99.4462 18.2337 98.621 19.581 98.621 21.1373ZM122.266 27.5948C122.88 27.5948 123.422 27.4555 123.94 27.2232V24.2267H123.658C123.516 24.2732 123.375 24.3196 123.257 24.3196C122.691 24.3196 122.644 23.8783 122.62 23.2279V10.8936H119.178V16.631H118.989C118.235 15.7715 117.197 15.1211 115.571 15.1211C111.751 15.1211 109.346 18.0015 109.346 21.509C109.346 24.8306 111.751 27.5948 115.547 27.5948C117.339 27.5948 118.801 26.898 119.626 25.7365H119.814C119.828 25.8038 119.842 25.8708 119.857 25.9372L119.873 26.0035C120.083 26.8514 120.536 27.5948 122.266 27.5948ZM112.741 21.3696C112.741 23.2279 114.179 24.5287 115.971 24.5287C117.81 24.5287 119.225 23.0885 119.225 21.3696C119.225 19.581 117.763 18.1873 115.948 18.1873C114.179 18.1873 112.741 19.4649 112.741 21.3696ZM138.297 27.5948C138.91 27.5948 139.452 27.4555 139.971 27.2232V24.2267H139.688C139.546 24.2732 139.405 24.3196 139.287 24.3196C138.721 24.3196 138.674 23.8783 138.65 23.2279V15.4928H136.104L135.774 16.8633H135.585C134.831 15.9806 133.746 15.1211 131.601 15.1211C127.781 15.1211 125.376 18.0015 125.376 21.509C125.376 24.8306 127.781 27.5948 131.577 27.5948C133.369 27.5948 134.831 26.898 135.656 25.7365H135.845C135.858 25.8038 135.872 25.8708 135.887 25.9372L135.903 26.0035C136.113 26.8514 136.567 27.5948 138.297 27.5948ZM128.771 21.3696C128.771 23.2279 130.21 24.5287 132.001 24.5287C133.84 24.5287 135.255 23.0885 135.255 21.3696C135.255 19.581 133.793 18.1873 131.978 18.1873C130.21 18.1873 128.771 19.4649 128.771 21.3696ZM145.674 27.2464V21.1373C145.674 19.581 146.499 18.2337 148.244 18.2337C149.753 18.2337 150.672 19.1164 150.672 20.7889V27.2464H154.209V20.0456C154.209 17.0956 152.511 15.1211 149.258 15.1211C147.301 15.1211 146.193 15.8877 145.509 16.8168H145.297L144.967 15.4696H142.137V27.2464H145.674ZM166.655 26.7818C165.759 27.2696 164.51 27.6181 163.024 27.6181C158.993 27.6181 156.399 24.9932 156.399 21.3696C156.399 17.7227 159.016 15.1211 163.001 15.1211C164.486 15.1211 165.759 15.4463 166.655 15.9574V19.0003H166.396C165.641 18.5589 164.533 18.257 163.307 18.257C161.35 18.257 160.006 19.4881 160.006 21.3696C160.006 23.2279 161.303 24.5054 163.331 24.5054C164.557 24.5054 165.641 24.1802 166.396 23.7389H166.655V26.7818ZM174.999 27.6181C176.956 27.6181 178.418 27.3161 179.714 26.596V24.1106H179.479C178.229 24.6448 177.121 24.8771 175.518 24.8771C173.797 24.8771 172.005 24.3196 171.58 22.3684H180.139C180.422 21.7645 180.516 20.9979 180.516 20.3475C180.516 17.4208 178.323 15.1211 174.645 15.1211C171.062 15.1211 168.327 17.444 168.327 21.3928C168.327 25.2023 170.991 27.6181 174.999 27.6181ZM171.604 20.1849H177.545V20.0223C177.498 18.7215 176.437 17.6298 174.693 17.6298C173.254 17.6298 171.981 18.3731 171.604 20.1849Z" fill="#777777"/>
<path fill-rule="evenodd" clip-rule="evenodd" d="M124.298 38.9739C124.057 39.1645 123.736 39.2598 123.335 39.2598H122.556C122.151 39.2598 121.829 39.1409 121.59 38.9032C121.351 38.6655 121.231 38.3425 121.231 37.9343H121.6C121.6 38.2394 121.687 38.4805 121.86 38.6576C122.033 38.8348 122.267 38.9234 122.563 38.9234H123.328C123.615 38.9234 123.846 38.8584 124.021 38.7283C124.197 38.5982 124.284 38.4278 124.284 38.2169V37.7594C124.284 37.589 124.22 37.4432 124.093 37.3221C123.965 37.201 123.788 37.1225 123.56 37.0866L122.338 36.8847C122.01 36.8309 121.754 36.7143 121.57 36.5349C121.385 36.3554 121.293 36.1312 121.293 35.862V35.4718C121.293 35.1623 121.411 34.9134 121.648 34.725C121.885 34.5366 122.197 34.4424 122.584 34.4424H123.355C123.724 34.4424 124.021 34.5523 124.247 34.7721C124.472 34.9919 124.585 35.2812 124.585 35.64H124.216C124.216 35.3799 124.137 35.1702 123.98 35.0109C123.823 34.8517 123.615 34.7721 123.355 34.7721H122.584C122.306 34.7721 122.084 34.836 121.918 34.9638C121.752 35.0917 121.669 35.261 121.669 35.4718V35.862C121.669 36.0415 121.73 36.1917 121.853 36.3128C121.976 36.4339 122.149 36.5124 122.372 36.5483L123.588 36.7569C123.924 36.8152 124.187 36.9318 124.376 37.1068C124.565 37.2817 124.66 37.4993 124.66 37.7594V38.2169C124.66 38.5309 124.539 38.7832 124.298 38.9739ZM77.8299 38.8864C77.5977 39.0995 77.2881 39.206 76.9011 39.206H74.9821C74.8774 39.206 74.7931 39.1746 74.7294 39.1118C74.6657 39.049 74.6338 38.966 74.6338 38.8628V34.4962H76.6211C76.999 34.4962 77.3029 34.5882 77.5328 34.7721C77.7627 34.956 77.8777 35.1982 77.8777 35.4987V35.8822C77.8777 36.0661 77.8367 36.2355 77.7548 36.3902C77.6728 36.545 77.5635 36.6649 77.427 36.7502V36.7569C77.6546 36.8107 77.8367 36.9217 77.9733 37.09C78.1099 37.2582 78.1782 37.4544 78.1782 37.6787V38.042C78.1782 38.3919 78.0621 38.6733 77.8299 38.8864ZM75.0094 36.6694H76.7577C76.9808 36.6694 77.1606 36.5977 77.2972 36.4541C77.4338 36.3106 77.5021 36.12 77.5021 35.8822V35.4987C77.5021 35.3014 77.4213 35.1399 77.2597 35.0143C77.098 34.8887 76.8852 34.8259 76.6211 34.8259H75.0094V36.6694ZM76.867 38.8696H75.0094V36.9857H76.9967C77.238 36.9857 77.4327 37.0496 77.5806 37.1774C77.7286 37.3053 77.8026 37.4723 77.8026 37.6787V38.042C77.8026 38.2932 77.7172 38.4939 77.5465 38.6442C77.3757 38.7944 77.1492 38.8696 76.867 38.8696ZM90.7036 37.1202V39.206H90.3279V34.4962H92.5816C92.9139 34.4962 93.1803 34.587 93.3806 34.7687C93.5809 34.9504 93.6811 35.1915 93.6811 35.492V36.0168C93.6811 36.2545 93.6037 36.4642 93.4489 36.6459C93.2941 36.8275 93.087 36.952 92.8274 37.0193V37.026C92.964 37.0933 93.087 37.2032 93.1962 37.3557C93.3055 37.5082 93.3897 37.6876 93.4489 37.894L93.8313 39.206H93.4489L93.0665 37.894C92.9936 37.6562 92.8787 37.4679 92.7216 37.3288C92.5645 37.1898 92.3858 37.1202 92.1855 37.1202H90.7036ZM92.4109 36.7905H90.7036V34.8259H92.5748C92.7979 34.8259 92.9754 34.8853 93.1074 35.0042C93.2395 35.1231 93.3055 35.2812 93.3055 35.4785V36.0168C93.3055 36.25 93.2235 36.4373 93.0596 36.5786C92.8957 36.7199 92.6795 36.7905 92.4109 36.7905ZM106.459 37.8334L105.933 39.206H105.544L107.368 34.4962H107.545C107.654 34.4962 107.736 34.5657 107.791 34.7048L109.519 39.206H109.13L108.61 37.8334H106.459ZM108.494 37.5172H106.575L107.531 34.9941H107.538L108.494 37.5172ZM137.294 39.206V34.4962H136.919V39.206H137.294ZM152.729 38.8696V39.206H150.107C149.997 39.206 149.912 39.1757 149.851 39.1152C149.789 39.0546 149.758 38.9683 149.758 38.8561V34.4962H150.134V38.8696H152.729Z" fill="#777777"/>
<path fill-rule="evenodd" clip-rule="evenodd" d="M21.286 1.73012C21.286 0.774601 20.4919 0 19.5122 0C18.5325 0 17.7384 0.774601 17.7384 1.73012C17.7384 2.68564 18.5325 3.46024 19.5122 3.46024C20.4919 3.46024 21.286 2.68564 21.286 1.73012ZM10.9518 4.95426C11.5646 4.60921 11.7745 3.84501 11.4207 3.24737C11.067 2.64972 10.2835 2.44496 9.67073 2.79001C9.05799 3.13505 8.84805 3.89926 9.20181 4.4969C9.55558 5.09454 10.3391 5.2993 10.9518 4.95426ZM26.2987 7.95091C27.3889 8.56485 27.816 9.86882 27.335 10.9707C29.0996 12.5245 30.3691 14.603 30.8851 16.9541C32.0386 17.154 32.9145 18.1371 32.9145 19.3197C32.9145 20.5022 32.0386 21.4853 30.8851 21.6854C30.3594 24.0804 29.0517 26.1927 27.2353 27.7557C27.5965 28.8155 27.1584 30.0121 26.128 30.5923C25.0801 31.1824 23.7725 30.9363 23.0174 30.0664C21.9407 30.3908 20.7966 30.5654 19.6107 30.5654C18.3672 30.5654 17.1697 30.3734 16.0476 30.0182C15.2998 30.927 13.9634 31.1932 12.8963 30.5923C11.8236 29.9882 11.3929 28.7161 11.8376 27.6258C10.1052 26.0825 8.85726 24.0306 8.34225 21.7122C7.09012 21.5985 6.10984 20.5708 6.10984 19.3197C6.10984 18.0686 7.09012 17.0408 8.34239 16.9272C8.84831 14.6491 10.0621 12.6282 11.7479 11.0945C11.177 9.96831 11.5942 8.58804 12.7257 7.95091C13.8385 7.32422 15.2444 7.64065 15.9702 8.64596L16.1388 8.5927C17.2345 8.25565 18.4008 8.07389 19.6107 8.07389C20.824 8.07389 21.9935 8.25668 23.0919 8.59557C23.8275 7.63019 25.2046 7.33485 26.2987 7.95091ZM11.5915 35.2959C11.9452 34.6982 11.7353 33.934 11.1225 33.589C10.5098 33.2439 9.72629 33.4487 9.37252 34.0463C9.01875 34.644 9.22869 35.4082 9.84144 35.7532C10.4542 36.0983 11.2377 35.8935 11.5915 35.2959ZM29.6519 34.0463C30.0056 34.644 29.7957 35.4082 29.1829 35.7532C28.5702 36.0983 27.7867 35.8935 27.4329 35.2959C27.0792 34.6982 27.2891 33.934 27.9018 33.589C28.5146 33.2439 29.2981 33.4487 29.6519 34.0463ZM19.5122 34.9869C20.4919 34.9869 21.286 35.7615 21.286 36.717C21.286 37.6725 20.4919 38.4471 19.5122 38.4471C18.5325 38.4471 17.7384 37.6725 17.7384 36.717C17.7384 35.7615 18.5325 34.9869 19.5122 34.9869ZM4.86653 29.4686C5.71495 28.9908 6.00563 27.9327 5.5158 27.1052C5.02597 26.2777 3.94111 25.9942 3.0927 26.4719C2.24429 26.9497 1.9536 28.0078 2.44343 28.8353C2.93326 29.6628 4.01812 29.9464 4.86653 29.4686ZM35.9317 26.4719C36.7801 26.9497 37.0708 28.0078 36.5809 28.8353C36.0911 29.6628 35.0062 29.9464 34.1578 29.4686C33.3094 28.9908 33.0187 27.9327 33.5085 27.1052C33.9984 26.2777 35.0832 25.9942 35.9317 26.4719ZM16.4198 10.1214C17.4215 9.79096 18.4947 9.61178 19.6108 9.61178C20.6535 9.61178 21.6587 9.76816 22.603 10.0583C22.613 10.8786 23.0538 11.673 23.8351 12.1129C24.6205 12.5552 25.5518 12.5278 26.2872 12.1197C27.7824 13.4394 28.8646 15.1961 29.3218 17.1834C28.5291 17.5827 27.9872 18.3895 27.9872 19.3197C27.9872 20.2499 28.5291 21.0566 29.3222 21.4562C28.8641 23.4455 27.7799 25.2039 26.282 26.5239C25.5249 26.0224 24.5101 25.9541 23.6644 26.4303C22.8368 26.8963 22.3913 27.7599 22.4353 28.6311C21.5399 28.8891 20.5919 29.0276 19.6108 29.0276C18.5581 29.0276 17.5437 28.8682 16.5916 28.5726C16.6131 27.7215 16.1692 26.8859 15.3601 26.4303C14.557 25.978 13.6012 26.0169 12.8585 26.452C11.3784 25.1183 10.3143 23.3518 9.87771 21.3587C10.5741 20.9342 11.0373 20.1797 11.0373 19.3197C11.0373 18.4597 10.5741 17.7052 9.87751 17.2807C10.3147 15.2859 11.3801 13.5182 12.8622 12.1846C13.5761 12.5294 14.4478 12.5306 15.1894 12.1129C15.9506 11.6843 16.3885 10.9194 16.4198 10.1214ZM20.1813 14.7435C20.3567 14.8431 20.5028 14.985 20.6057 15.1556L23.9822 20.7533C24.3134 21.3023 24.1255 22.0093 23.5626 22.3323C23.3809 22.4366 23.1738 22.4916 22.963 22.4916H16.2469C15.5938 22.4916 15.0644 21.9752 15.0644 21.3381C15.0644 21.1343 15.1197 20.9342 15.2248 20.758L18.5644 15.1603C18.8929 14.6097 19.6168 14.4231 20.1813 14.7435ZM39.0244 19.3197C39.0244 18.6296 38.4509 18.0701 37.7433 18.0701C37.0358 18.0701 36.4622 18.6296 36.4622 19.3197C36.4622 20.0098 37.0358 20.5692 37.7433 20.5692C38.4509 20.5692 39.0244 20.0098 39.0244 19.3197ZM1.2811 18.0701C1.98864 18.0701 2.56221 18.6296 2.56221 19.3197C2.56221 20.0098 1.98864 20.5692 1.2811 20.5692C0.573569 20.5692 0 20.0098 0 19.3197C0 18.6296 0.573569 18.0701 1.2811 18.0701ZM35.9317 11.9752C36.7801 11.4974 37.0708 10.4393 36.5809 9.61178C36.0911 8.78427 35.0062 8.50075 34.1578 8.97851C33.3094 9.45627 33.0187 10.5144 33.5085 11.3419C33.9984 12.1694 35.0832 12.4529 35.9317 11.9752ZM4.86653 8.97851C5.71495 9.45627 6.00563 10.5144 5.5158 11.3419C5.02597 12.1694 3.94111 12.4529 3.0927 11.9752C2.24429 11.4974 1.9536 10.4393 2.44343 9.61178C2.93326 8.78427 4.01812 8.50075 4.86653 8.97851ZM29.3536 2.79001C29.9664 3.13505 30.1763 3.89926 29.8226 4.4969C29.4688 5.09454 28.6853 5.2993 28.0725 4.95426C27.4598 4.60921 27.2499 3.84501 27.6036 3.24737C27.9574 2.64972 28.7409 2.44496 29.3536 2.79001Z" fill="url(#paint0_linear_6_10735)"/>
<defs>
<linearGradient id="paint0_linear_6_10735" x1="3.00508" y1="0" x2="3.00508" y2="32.5259" gradientUnits="userSpaceOnUse">
<stop stop-color="#726BE6"/>
<stop offset="1" stop-color="#77CAB7"/>
</linearGradient>
</defs>
</svg>
