<svg width="28" height="20" viewBox="0 0 28 20" fill="none" xmlns="http://www.w3.org/2000/svg">
<mask id="mask0_87_6456" style="mask-type:alpha" maskUnits="userSpaceOnUse" x="0" y="0" width="28" height="20">
<path d="M26 0H2C0.89543 0 0 0.89543 0 2V18C0 19.1046 0.89543 20 2 20H26C27.1046 20 28 19.1046 28 18V2C28 0.89543 27.1046 0 26 0Z" fill="#FFD133"/>
</mask>
<g mask="url(#mask0_87_6456)">
<rect width="28" height="20" fill="#FFD133"/>
<path d="M9.03257 8.80027C8.9347 9.1886 8.88184 9.59487 8.88184 10.0137C8.88184 12.7569 11.1054 14.9808 13.8492 14.9808C16.059 14.9808 17.9305 13.5367 18.5749 11.5415C16.481 9.7519 13.7649 8.66968 10.8005 8.66968C10.2001 8.66968 9.60972 8.71468 9.03257 8.80027ZM9.77965 11.8584L9.63552 11.7536L9.49139 11.8584L9.54615 11.6891L9.40233 11.5847H9.58045L9.63552 11.415L9.69028 11.5847H9.86808L9.72426 11.6891L9.77965 11.8584ZM9.77178 9.21818L9.62797 9.32298L9.68304 9.15367L9.53891 9.04888H9.71703L9.77147 8.87958L9.82654 9.04888H10.0047L9.86052 9.15367L9.91528 9.32298L9.77178 9.21818ZM10.382 11.415L10.2382 11.3106L10.0943 11.415L10.1494 11.2457L10.0053 11.1409H10.1831L10.2382 10.9716L10.2929 11.1409H10.4707L10.3266 11.2457L10.382 11.415ZM13.8967 13.9486L13.8489 13.914L13.8011 13.9486L13.8193 13.8926L13.7712 13.8577H13.8307L13.8489 13.802L13.8669 13.8577H13.926L13.8782 13.8926L13.8967 13.9486ZM17.9811 11.742L18.0179 11.6278L18.0551 11.742H18.1753L18.078 11.8125L18.1152 11.9267L18.0176 11.8559L17.9207 11.9267L17.9581 11.8125L17.8606 11.742H17.9811ZM17.6863 12.1577L17.589 12.2285L17.6261 12.3421L17.5292 12.2719L17.432 12.3421L17.4688 12.2285L17.3716 12.1577H17.4915L17.5289 12.0438L17.5657 12.1577H17.6863ZM17.2724 11.6898L17.3272 11.5208L17.3823 11.6898H17.5601L17.4166 11.7946L17.4713 11.9639L17.3272 11.8591L17.1831 11.9639L17.2385 11.7946L17.0943 11.6898H17.2724ZM17.178 12.5111L17.2148 12.3972L17.2517 12.5111H17.3719L17.275 12.5816L17.3121 12.6958L17.2145 12.625L17.1182 12.6958L17.1554 12.5816L17.0578 12.5111H17.178ZM16.7837 12.8047L16.8209 12.6914L16.858 12.8047H16.9782L16.8806 12.8758L16.9178 12.9891L16.8205 12.9193L16.7233 12.9891L16.7604 12.8758L16.6629 12.8047H16.7837ZM16.2881 12.6996L16.3249 12.5857L16.3617 12.6996H16.4819L16.3847 12.7704L16.4215 12.884L16.3246 12.8142L16.2277 12.884L16.2645 12.7704L16.1679 12.6996H16.2881ZM16.2881 13.6906L16.3249 13.576L16.3617 13.6906H16.4819L16.3847 13.7607L16.4215 13.875L16.3246 13.8045L16.2277 13.875L16.2645 13.7607L16.1679 13.6906H16.2881ZM15.7172 12.8821L15.7544 12.7679L15.7912 12.8821H15.9114L15.8142 12.9526L15.8513 13.0665L15.7541 12.996L15.6568 13.0665L15.6939 12.9526L15.597 12.8821H15.7172ZM15.48 13.2906L15.383 13.3614L15.4202 13.4753L15.3226 13.4048L15.2257 13.4753L15.2628 13.3614L15.1656 13.2906H15.2858L15.3223 13.177L15.3591 13.2906H15.48ZM15.1577 9.70186L15.1948 9.58826L15.2317 9.70186H15.3519L15.2543 9.77267L15.2921 9.8869L15.1945 9.81641L15.0976 9.8869L15.1344 9.77267L15.0372 9.70186H15.1577ZM14.922 12.7327L14.9595 12.6187L14.9963 12.7327H15.1162L15.0193 12.8035L15.0561 12.9174L14.9598 12.8469L14.8628 12.9174L14.8997 12.8035L14.8024 12.7327H14.922ZM14.3836 11.2309L14.4204 11.1167L14.4572 11.2309H14.5774L14.4802 11.3014L14.5173 11.4154L14.4201 11.3449L14.3228 11.4154L14.3597 11.3014L14.2627 11.2309H14.3836ZM13.9927 12.4598L13.8489 12.3557L13.7048 12.4598L13.7599 12.2905L13.616 12.1857H13.7938L13.8489 12.0167L13.9037 12.1857H14.0818L13.9377 12.2905L13.9927 12.4598ZM13.7979 10.7495L13.8351 10.6352L13.8722 10.7495H13.9921L13.8952 10.82L13.9323 10.9336L13.8351 10.8631L13.7378 10.9336L13.775 10.82L13.6777 10.7495H13.7979ZM13.5924 11.5425L13.6157 11.4707L13.639 11.5425H13.7145L13.6535 11.5869L13.6771 11.6586L13.616 11.6146L13.5553 11.6586L13.5786 11.5869L13.5175 11.5425H13.5924ZM13.3032 11.1586L13.3404 11.0443L13.3775 11.1586H13.4974L13.4002 11.2287L13.4373 11.343L13.3404 11.2725L13.2434 11.343L13.2803 11.2287L13.1833 11.1586H13.3032ZM11.7748 12.5662L11.8302 12.3972L11.8849 12.5662H12.0627L11.9186 12.671L11.9737 12.8403L11.8295 12.7358L11.6854 12.8403L11.7405 12.671L11.5964 12.5662H11.7748ZM11.2247 11.6526L11.2798 11.4833L11.3349 11.6526H11.5127L11.3685 11.7574L11.4236 11.9267L11.2795 11.8216L11.1357 11.9267L11.1904 11.7574L11.0466 11.6526H11.2247ZM11.0727 12.1127L11.1098 11.9991L11.1473 12.1127H11.2672L11.1696 12.1835L11.2068 12.2974L11.1098 12.2269L11.0126 12.2974L11.0497 12.1835L10.9528 12.1127H11.0727ZM10.781 10.9723L10.7199 10.9279L10.6592 10.9723L10.6825 10.9002L10.6218 10.8558H10.6967L10.7199 10.7844L10.7435 10.8558H10.8188L10.7577 10.9002L10.781 10.9723Z" fill="#00226A"/>
<path d="M18.5748 11.5415C18.5763 11.5373 18.5784 11.5292 18.5784 11.5292C18.5757 11.5367 18.5757 11.5367 18.5742 11.5412C18.5745 11.5409 18.5748 11.5415 18.5748 11.5415Z" fill="black"/>
<path d="M9.03125 8.80021C9.03125 8.80021 9.03153 8.80021 9.03209 8.79993C9.03237 8.79993 9.03322 8.79233 9.03125 8.80021Z" fill="black"/>
<path d="M9.33617 7.93811C9.33584 7.93811 9.33518 7.93811 9.33518 7.93811C9.33617 7.93811 9.33354 7.94436 9.33617 7.93811Z" fill="black"/>
<path d="M-0.322266 0.0621338V20H27.9999V0.0621338H-0.322266ZM13.8486 17.4809L2.08103 10.0136L13.8486 2.42515L25.5884 10.0136L13.8486 17.4809Z" fill="#149232"/>
<path d="M9.33594 7.93815C9.81616 7.8834 10.3046 7.85444 10.7992 7.85444C13.8149 7.85444 16.5867 8.89764 18.7738 10.6423C18.7999 10.4362 18.8157 10.2266 18.8157 10.0135C18.8157 7.27006 16.5914 5.04614 13.848 5.04614C11.8462 5.04646 10.122 6.23158 9.33594 7.93815ZM15.3723 8.36393L15.4274 8.19494L15.4828 8.36393H15.6603L15.5162 8.46872L15.5712 8.63802L15.4274 8.53355L15.2836 8.63802L15.3387 8.46872L15.1945 8.36393H15.3723Z" fill="#00226A"/>
</g>
</svg>
