<svg width="41" height="40" viewBox="0 0 41 40" fill="none" xmlns="http://www.w3.org/2000/svg">
<path fill-rule="evenodd" clip-rule="evenodd" d="M23.9725 0.445312C21.4143 0.445312 18.9845 1.35585 17.0688 3.04914C16.0777 2.67553 15.0784 2.46729 13.9945 2.46729C9.44897 2.46729 5.70147 6.11626 5.43203 10.6326C2.64035 11.1637 0.5 13.6769 0.5 16.709C0.5 19.8162 2.85614 22.4338 5.86007 22.805L8.13761 26.7155L8.14131 26.7211C8.34716 27.0298 8.6728 27.2585 9.07143 27.2585C9.45075 27.2585 9.83691 27.0463 10.0116 26.7046L12.274 22.8629H17.2974L19.5665 26.716L19.5699 26.7211C19.7757 27.0298 20.1014 27.2585 20.5 27.2585C20.8793 27.2585 21.2655 27.0463 21.4402 26.7047L23.7026 22.8629H28.726L30.995 26.716L30.9985 26.7211C31.2043 27.0298 31.5299 27.2585 31.9286 27.2585C32.3081 27.2585 32.6944 27.0461 32.869 26.7041L35.1399 22.805C38.1439 22.4338 40.5 19.8162 40.5 16.709C40.5 13.3648 37.8105 10.5993 34.5132 10.5557C34.2269 4.91271 29.6053 0.445312 23.9725 0.445312ZM18.1499 5.17215C19.7367 3.5854 21.8352 2.68707 24.0604 2.68707C28.682 2.68707 32.4121 6.49637 32.4121 11.2145V11.6541C32.4121 11.9214 32.5154 12.2314 32.6758 12.4453L32.6852 12.4578L32.6962 12.4689C32.916 12.6886 33.1929 12.797 33.511 12.797H34.522C36.6364 12.797 38.3878 14.5817 38.3901 16.7487C38.3044 18.877 36.5934 20.6225 34.4758 20.6651C34.0782 20.6659 33.7534 20.8943 33.5479 21.2025L33.5444 21.2078L31.9286 23.9665L30.3128 21.2078L30.3092 21.2025C30.1034 20.8937 29.7777 20.6651 29.3791 20.6651H23.0495C22.67 20.6651 22.2838 20.8774 22.1091 21.2192L20.5 23.9665L18.8842 21.2078L18.8807 21.2025C18.6748 20.8937 18.3492 20.6651 17.9505 20.6651H11.6209C11.2415 20.6651 10.8552 20.8774 10.6806 21.2192L9.07143 23.9665L7.45564 21.2078L7.4521 21.2025C7.24663 20.8943 6.92182 20.6659 6.52421 20.6651C4.40514 20.6224 2.6978 18.8764 2.6978 16.709C2.6978 14.5417 4.44857 12.753 6.60989 12.753C6.92799 12.753 7.2049 12.6446 7.42464 12.4249C7.64023 12.2093 7.7584 11.9269 7.70879 11.593V11.1706C7.70879 7.59681 10.5583 4.70905 14.0824 4.70905C15.06 4.70905 15.9918 4.92122 16.8815 5.38729L16.8852 5.38914C17.3293 5.61116 17.8256 5.49642 18.1499 5.17215Z" fill="url(#paint0_linear_194_31212)"/>
<path fill-rule="evenodd" clip-rule="evenodd" d="M7.75275 29.4563C6.18082 29.4563 4.8956 30.7415 4.8956 32.3134V38.4673C4.8956 39.0722 5.38961 39.5662 5.99451 39.5662H12.1484C12.7532 39.5662 13.2473 39.0722 13.2473 38.4673V32.3134C13.2473 30.7415 11.962 29.4563 10.3901 29.4563H7.75275ZM7.09341 32.3134C7.09341 31.9513 7.39061 31.6541 7.75275 31.6541H10.3901C10.7522 31.6541 11.0495 31.9513 11.0495 32.3134V37.3684H7.09341V32.3134Z" fill="url(#paint1_linear_194_31212)"/>
<path fill-rule="evenodd" clip-rule="evenodd" d="M19.1813 29.4563C17.6094 29.4563 16.3242 30.7415 16.3242 32.3134V38.4673C16.3242 39.0722 16.8182 39.5662 17.4231 39.5662H23.5769C24.1818 39.5662 24.6758 39.0722 24.6758 38.4673V32.3134C24.6758 30.7415 23.3906 29.4563 21.8187 29.4563H19.1813ZM18.522 32.3134C18.522 31.9513 18.8192 31.6541 19.1813 31.6541H21.8187C22.1808 31.6541 22.478 31.9513 22.478 32.3134V37.3684H18.522V32.3134Z" fill="url(#paint2_linear_194_31212)"/>
<path fill-rule="evenodd" clip-rule="evenodd" d="M30.6099 29.4563C29.038 29.4563 27.7527 30.7415 27.7527 32.3134V38.4673C27.7527 39.0722 28.2468 39.5662 28.8516 39.5662H35.0055C35.6104 39.5662 36.1044 39.0722 36.1044 38.4673V32.3134C36.1044 30.7415 34.8192 29.4563 33.2473 29.4563H30.6099ZM29.9505 32.3134C29.9505 31.9513 30.2478 31.6541 30.6099 31.6541H33.2473C33.6094 31.6541 33.9066 31.9513 33.9066 32.3134V37.3684H29.9505V32.3134Z" fill="url(#paint3_linear_194_31212)"/>
<defs>
<linearGradient id="paint0_linear_194_31212" x1="40.5" y1="20.0057" x2="17.969" y2="9.58251" gradientUnits="userSpaceOnUse">
<stop stop-color="#21AE7B"/>
<stop offset="1" stop-color="#747DDD"/>
</linearGradient>
<linearGradient id="paint1_linear_194_31212" x1="40.5" y1="20.0057" x2="17.969" y2="9.58251" gradientUnits="userSpaceOnUse">
<stop stop-color="#21AE7B"/>
<stop offset="1" stop-color="#747DDD"/>
</linearGradient>
<linearGradient id="paint2_linear_194_31212" x1="40.5" y1="20.0057" x2="17.969" y2="9.58251" gradientUnits="userSpaceOnUse">
<stop stop-color="#21AE7B"/>
<stop offset="1" stop-color="#747DDD"/>
</linearGradient>
<linearGradient id="paint3_linear_194_31212" x1="40.5" y1="20.0057" x2="17.969" y2="9.58251" gradientUnits="userSpaceOnUse">
<stop stop-color="#21AE7B"/>
<stop offset="1" stop-color="#747DDD"/>
</linearGradient>
</defs>
</svg>
