<svg width="32" height="33" viewBox="0 0 32 33" fill="none" xmlns="http://www.w3.org/2000/svg">
<path fill-rule="evenodd" clip-rule="evenodd" d="M16 0.333008C24.8366 0.333008 32 7.49645 32 16.333C32 25.1696 24.8366 32.333 16 32.333C7.16344 32.333 0 25.1696 0 16.333C0 7.49645 7.16344 0.333008 16 0.333008ZM19.3939 9.06026H16.9981C15.3611 9.06026 14.0233 10.3046 13.933 11.8725L13.9281 12.0417V14.3058H11.6364V17.0017H13.9281V23.6057H16.7041V17.0018H18.9851L19.3509 14.3059H16.7041V12.4319C16.7041 11.9461 17.0807 11.5456 17.5658 11.4909L17.6796 11.4845H19.3939V9.06026Z" fill="#5E65B5"/>
</svg>
