<svg width="24" height="25" viewBox="0 0 24 25" fill="none" xmlns="http://www.w3.org/2000/svg">
<path fill-rule="evenodd" clip-rule="evenodd" d="M4.74661 15.7H7.64795C8.84262 15.7 9.62768 15.0173 9.62768 13.9763C9.62768 13.2936 9.26928 12.8499 8.84262 12.756V12.6707C9.10715 12.5512 9.43142 12.0819 9.43142 11.4931C9.43142 10.452 8.65488 9.82054 7.49435 9.82054H4.74661V15.7ZM6.49595 12.1672V11.2285H7.06768C7.35781 11.2285 7.58822 11.3309 7.58822 11.6893C7.58822 12.0477 7.38342 12.1672 7.11035 12.1672H6.49595ZM6.49595 14.292V13.2851H7.29808C7.60528 13.2851 7.86128 13.3875 7.86128 13.7544C7.86128 14.1981 7.59675 14.292 7.29808 14.292H6.49595Z" fill="#5E65B5"/>
<path fill-rule="evenodd" clip-rule="evenodd" d="M14.072 13.396C14.5584 13.0632 14.9509 12.4915 14.9509 11.8003C14.9509 10.5629 14.2256 9.82054 12.6725 9.82054H10.2149V15.7H12.0155V13.7373H12.3397L13.1589 15.7H15.2325L14.072 13.396ZM12.6043 12.3635H12.0155V11.348H12.6043C12.92 11.348 13.1675 11.4589 13.1675 11.86C13.1675 12.1672 12.92 12.3635 12.6043 12.3635Z" fill="#5E65B5"/>
<path d="M19.5655 15.7H15.6999V9.82054H17.5346V13.9933H19.5655V15.7Z" fill="#5E65B5"/>
<path fill-rule="evenodd" clip-rule="evenodd" d="M24 12.5C24 5.87258 18.6274 0.5 12 0.5C5.37258 0.5 0 5.87258 0 12.5C0 19.1274 5.37258 24.5 12 24.5C18.6274 24.5 24 19.1274 24 12.5ZM1.33333 12.5C1.33333 6.60896 6.10896 1.83333 12 1.83333C17.891 1.83333 22.6667 6.60896 22.6667 12.5C22.6667 18.391 17.891 23.1667 12 23.1667C6.10896 23.1667 1.33333 18.391 1.33333 12.5Z" fill="#5E65B5"/>
</svg>
