<svg width="24" height="25" viewBox="0 0 24 25" fill="none" xmlns="http://www.w3.org/2000/svg">
<path fill-rule="evenodd" clip-rule="evenodd" d="M24 12.5C24 5.87258 18.6274 0.5 12 0.5C5.37258 0.5 0 5.87258 0 12.5C0 19.1274 5.37258 24.5 12 24.5C18.6274 24.5 24 19.1274 24 12.5ZM1.33333 12.5C1.33333 6.60896 6.10896 1.83333 12 1.83333C17.891 1.83333 22.6667 6.60896 22.6667 12.5C22.6667 18.391 17.891 23.1667 12 23.1667C6.10896 23.1667 1.33333 18.391 1.33333 12.5Z" fill="#5E65B5"/>
<path d="M6.90164 13.7992H8.70768C8.49467 13.6027 8.32823 13.3617 8.22039 13.0935C8.11257 12.8253 8.06608 12.5367 8.08423 12.2485C8.10239 11.9602 8.18477 11.6796 8.32543 11.4269C8.46608 11.1741 8.66146 10.9556 8.89747 10.7872C8.81322 10.3504 8.8819 9.89806 9.0921 9.50542C9.30227 9.11278 9.64135 8.80345 10.0529 8.62884C10.0697 8.49056 10.1015 8.35449 10.1478 8.22301C10.0029 7.93514 9.76451 7.70431 9.47116 7.56794C9.1778 7.43156 8.84672 7.39762 8.53154 7.47163C8.21636 7.54563 7.93557 7.72324 7.73464 7.97567C7.53371 8.2281 7.42443 8.54056 7.42451 8.86242V9.01601C7.20765 9.05592 7.00292 9.14486 6.82617 9.27596C6.64939 9.40706 6.50534 9.5768 6.40511 9.77206C6.3049 9.96732 6.25121 10.1829 6.24819 10.402C6.24516 10.6212 6.2929 10.8382 6.3877 11.0361C6.07389 11.1554 5.81205 11.3801 5.64763 11.6714C5.48321 11.9626 5.42663 12.3018 5.4877 12.6302C5.54877 12.9585 5.72366 13.2553 5.98196 13.4688C6.24025 13.6824 6.56565 13.7993 6.90164 13.7992Z" fill="#5E65B5"/>
<path d="M9.52495 11.0361C9.43291 10.8441 9.38519 10.6341 9.3853 10.4214C9.38573 10.0876 9.50356 9.76436 9.71837 9.50772C9.93322 9.25109 10.2315 9.07715 10.5618 9.01601V8.86242C10.5618 8.48341 10.7133 8.11993 10.9829 7.85193C11.2526 7.58393 11.6183 7.43337 11.9997 7.43337C12.381 7.43337 12.7468 7.58393 13.0164 7.85193C13.2861 8.11993 13.4376 8.48341 13.4376 8.86242V9.01601C13.6545 9.05592 13.8592 9.14486 14.036 9.27596C14.2127 9.40705 14.3568 9.5768 14.457 9.77206C14.5572 9.96732 14.6109 10.1829 14.6139 10.402C14.6169 10.6212 14.5692 10.8382 14.4744 11.0361C14.7882 11.1554 15.0501 11.3801 15.2145 11.6714C15.3789 11.9626 15.4355 12.3018 15.3744 12.6302C15.3133 12.9585 15.1385 13.2553 14.8802 13.4688C14.6219 13.6824 14.2964 13.7993 13.9605 13.7992H10.0389C9.7029 13.7993 9.37751 13.6824 9.11921 13.4688C8.86091 13.2553 8.68603 12.9585 8.62496 12.6302C8.56389 12.3018 8.62046 11.9626 8.78488 11.6714C8.9493 11.3801 9.21115 11.1554 9.52495 11.0361Z" fill="#5E65B5"/>
<path d="M15.3984 15.8778H17.2284C17.6097 15.8782 17.9751 16.0289 18.2447 16.2968C18.5143 16.5647 18.6659 16.928 18.6663 17.3069C18.6663 17.3758 18.6388 17.4419 18.5898 17.4906C18.5407 17.5393 18.4742 17.5667 18.4049 17.5667H5.59445C5.5251 17.5667 5.45862 17.5393 5.40958 17.4906C5.36056 17.4419 5.33301 17.3758 5.33301 17.3069C5.33344 16.928 5.48507 16.5647 5.75463 16.2968C6.02421 16.0289 6.38969 15.8782 6.77092 15.8778H8.60098V14.3188H9.12386V15.8778H11.7382V14.3188H12.2611V15.8778H14.8755V14.3188H15.3984V15.8778Z" fill="#5E65B5"/>
<path d="M15.1019 10.7872C15.1251 10.6666 15.1369 10.5441 15.1369 10.4214C15.137 10.0396 15.0242 9.66612 14.8126 9.34744C14.6009 9.02876 14.2997 8.77888 13.9464 8.62884C13.9296 8.49056 13.8978 8.35449 13.8516 8.22301C13.9964 7.93514 14.2348 7.70431 14.5282 7.56794C14.8215 7.43156 15.1526 7.39762 15.4678 7.47163C15.783 7.54563 16.0638 7.72324 16.2647 7.97567C16.4656 8.2281 16.5749 8.54056 16.5748 8.86242V9.01601C16.7917 9.05592 16.9964 9.14486 17.1732 9.27596C17.35 9.40706 17.494 9.5768 17.5942 9.77206C17.6945 9.96732 17.7481 10.1829 17.7512 10.402C17.7542 10.6212 17.7065 10.8382 17.6117 11.0361C17.9255 11.1554 18.1873 11.3801 18.3517 11.6714C18.5161 11.9626 18.5727 12.3018 18.5116 12.6302C18.4506 12.9585 18.2757 13.2553 18.0174 13.4688C17.7591 13.6824 17.4337 13.7993 17.0977 13.7992H15.2917C15.6395 13.4805 15.8591 13.0473 15.9099 12.5799C15.9607 12.1126 15.8393 11.6427 15.568 11.2576C15.4405 11.0757 15.2829 10.9167 15.1019 10.7872Z" fill="#5E65B5"/>
</svg>
