<svg width="24" height="25" viewBox="0 0 24 25" fill="none" xmlns="http://www.w3.org/2000/svg">
<path fill-rule="evenodd" clip-rule="evenodd" d="M24 12.5C24 5.87258 18.6274 0.5 12 0.5C5.37258 0.5 0 5.87258 0 12.5C0 19.1274 5.37258 24.5 12 24.5C18.6274 24.5 24 19.1274 24 12.5ZM1.33333 12.5C1.33333 6.60896 6.10896 1.83333 12 1.83333C17.891 1.83333 22.6667 6.60896 22.6667 12.5C22.6667 18.391 17.891 23.1667 12 23.1667C6.10896 23.1667 1.33333 18.391 1.33333 12.5Z" fill="#5E65B5"/>
<path fill-rule="evenodd" clip-rule="evenodd" d="M12.2904 15.5666H11.454C10.994 15.5666 10.6177 15.943 10.6177 16.403V18.3545C10.6177 18.5079 10.7431 18.6333 10.8964 18.6333H12.848C13.0013 18.6333 13.1268 18.5079 13.1268 18.3545V16.403C13.1268 15.943 12.7504 15.5666 12.2904 15.5666ZM12.5692 18.0757H11.1753V16.403C11.1753 16.2496 11.3008 16.1242 11.4541 16.1242H12.2905C12.4438 16.1242 12.5692 16.2496 12.5692 16.403V18.0757ZM8.66608 15.5666H7.82972C7.36972 15.5666 6.99335 15.943 6.99335 16.403V18.3545C6.99335 18.5079 7.11881 18.6333 7.27214 18.6333H9.22366C9.37699 18.6333 9.50244 18.5079 9.50244 18.3545V16.403C9.50244 15.943 9.12608 15.5666 8.66608 15.5666ZM8.94493 18.0757H7.55099V16.403C7.55099 16.2496 7.67645 16.1242 7.82978 16.1242H8.66615C8.81948 16.1242 8.94493 16.2496 8.94493 16.403V18.0757ZM15.9147 15.5666H15.0783C14.6183 15.5666 14.242 15.943 14.242 16.403V18.3545C14.242 18.5079 14.3674 18.6333 14.5208 18.6333H16.4723C16.6256 18.6333 16.7511 18.5079 16.7511 18.3545V16.403C16.7511 15.943 16.3747 15.5666 15.9147 15.5666ZM16.1935 18.0757H14.7996V16.403C14.7996 16.2496 14.9251 16.1242 15.0784 16.1242H15.9148C16.0681 16.1242 16.1935 16.2496 16.1935 16.403V18.0757ZM16.2911 9.5727H16.2493C16.1935 7.78846 14.7439 6.36664 12.9735 6.36664C12.1651 6.36664 11.3984 6.65937 10.799 7.203C10.4784 7.07755 10.1578 7.00785 9.80931 7.00785C8.38749 7.00785 7.21658 8.16482 7.16082 9.58664C6.28264 9.72603 5.59961 10.5066 5.59961 11.4545C5.59961 12.4163 6.3384 13.2248 7.27234 13.3224L8.01112 14.5909C8.06688 14.6745 8.15052 14.7303 8.24809 14.7303C8.34567 14.7303 8.44325 14.6745 8.48506 14.5909L9.22385 13.3363H10.8966L11.6354 14.5909C11.6911 14.6745 11.7748 14.7303 11.8723 14.7303C11.9699 14.7303 12.0675 14.6745 12.1093 14.5909L12.8481 13.3363H14.5208L15.2596 14.5909C15.3154 14.6745 15.399 14.7303 15.4966 14.7303C15.5942 14.7303 15.6917 14.6745 15.7335 14.5909L16.4723 13.3224C17.4063 13.2248 18.1451 12.4163 18.1451 11.4545C18.1451 10.423 17.3087 9.5727 16.2911 9.5727Z" fill="#5E65B5"/>
</svg>
