<svg width="32" height="33" viewBox="0 0 32 33" fill="none" xmlns="http://www.w3.org/2000/svg">
<path fill-rule="evenodd" clip-rule="evenodd" d="M16 0.333008C24.8366 0.333008 32 7.49645 32 16.333C32 25.1696 24.8366 32.333 16 32.333C7.16344 32.333 0 25.1696 0 16.333C0 7.49645 7.16344 0.333008 16 0.333008ZM17.5578 8.63672L16.9849 8.63197H15.0152L13.9363 8.64384L13.1253 8.66521L12.8202 8.67945C11.4293 8.74633 10.3526 9.16093 9.5903 9.92328C8.82795 10.6856 8.41335 11.7623 8.34647 13.1532L8.32036 13.8303L8.30374 14.7752L8.29661 16.678L8.31086 18.3967L8.33223 19.2077L8.34647 19.5128C8.41335 20.9037 8.82795 21.9804 9.5903 22.7427C10.3526 23.5051 11.4293 23.9197 12.8202 23.9865L13.4974 24.0127L14.4423 24.0293L16 24.0367L17.5578 24.0293L18.5027 24.0127L19.1798 23.9865C20.5708 23.9197 21.6474 23.5051 22.4097 22.7427C23.1721 21.9804 23.5867 20.9037 23.6536 19.5128L23.6797 18.8357L23.6963 17.8908L23.7037 16.333L23.6963 14.7752L23.6797 13.8303L23.6536 13.1532C23.5867 11.7623 23.1721 10.6856 22.4097 9.92328C21.6474 9.16093 20.5708 8.74633 19.1798 8.67945L18.5027 8.65334L17.5578 8.63672ZM13.6526 10.0218L14.1744 10.0085H17.8257L18.3475 10.0218L18.7936 10.0386C19.1982 10.0553 19.5426 10.0888 19.8268 10.1389C20.111 10.1891 20.3501 10.2509 20.544 10.3245C20.8784 10.4582 21.1726 10.6522 21.4267 10.9063C21.6808 11.1604 21.8748 11.4546 22.0085 11.789C22.0821 11.9829 22.1439 12.222 22.1941 12.5062C22.2317 12.7194 22.2599 12.9664 22.2787 13.2472L22.3113 13.9856L22.3267 14.7854L22.3245 18.1586L22.3113 18.6804L22.2944 19.1266C22.2777 19.5312 22.2443 19.8756 22.1941 20.1598C22.1439 20.444 22.0821 20.683 22.0085 20.877C21.8748 21.2113 21.6808 21.5056 21.4267 21.7597C21.1726 22.0138 20.8784 22.2077 20.544 22.3415C20.3501 22.415 20.111 22.4769 19.8268 22.527C19.6137 22.5647 19.3666 22.5929 19.0858 22.6117L18.3475 22.6442L17.5476 22.6597L14.1744 22.6574L13.6526 22.6442L13.2064 22.6274C12.8019 22.6106 12.4575 22.5772 12.1733 22.527C11.8891 22.4769 11.65 22.415 11.4561 22.3415C11.1217 22.2077 10.8275 22.0138 10.5733 21.7597C10.3192 21.5056 10.1253 21.2113 9.99155 20.877C9.91799 20.683 9.85613 20.444 9.80598 20.1598C9.76836 19.9466 9.74015 19.6996 9.72134 19.4187L9.68882 18.6804L9.67335 17.8805L9.67558 14.5074L9.68882 13.9856L9.70567 13.5394C9.72239 13.1348 9.75583 12.7904 9.80598 12.5062C9.85613 12.222 9.91799 11.9829 9.99155 11.789C10.1253 11.4546 10.3192 11.1604 10.5733 10.9063C10.8275 10.6522 11.1217 10.4582 11.4561 10.3245C11.65 10.2509 11.8891 10.1891 12.1733 10.1389C12.3864 10.1013 12.6334 10.0731 12.9143 10.0543L13.6526 10.0218ZM16 12.3809C14.9033 12.3809 13.9704 12.7654 13.2014 13.5345C12.4323 14.3035 12.0478 15.2364 12.0478 16.3331C12.0478 17.4298 12.4323 18.3627 13.2014 19.1317C13.9704 19.9007 14.9033 20.2852 16 20.2852C17.0967 20.2852 18.0296 19.9007 18.7986 19.1317C19.5676 18.3627 19.9522 17.4298 19.9522 16.3331C19.9522 15.2364 19.5676 14.3035 18.7986 13.5345C18.0296 12.7654 17.0967 12.3809 16 12.3809ZM16 13.7651C16.7089 13.7651 17.3141 14.0159 17.8156 14.5174C18.3172 15.019 18.5679 15.6242 18.5679 16.333C18.5679 17.0419 18.3172 17.6471 17.8156 18.1486C17.3141 18.6502 16.7089 18.9009 16 18.9009C15.2912 18.9009 14.686 18.6502 14.1844 18.1486C13.6829 17.6471 13.4321 17.0419 13.4321 16.333C13.4321 15.6242 13.6829 15.019 14.1844 14.5174C14.686 14.0159 15.2912 13.7651 16 13.7651ZM20.1127 11.2976C19.8586 11.2976 19.6412 11.3879 19.4607 11.5684C19.2801 11.749 19.1898 11.9663 19.1898 12.2204C19.1898 12.4745 19.2801 12.6919 19.4607 12.8724C19.6412 13.053 19.8586 13.1433 20.1127 13.1433C20.3668 13.1433 20.5841 13.053 20.7647 12.8724C20.9452 12.6919 21.0355 12.4745 21.0355 12.2204C21.0355 11.9663 20.9452 11.749 20.7647 11.5684C20.5841 11.3879 20.3668 11.2976 20.1127 11.2976Z" fill="#5E65B5"/>
</svg>
