<svg width="32" height="33" viewBox="0 0 32 33" fill="none" xmlns="http://www.w3.org/2000/svg">
<path fill-rule="evenodd" clip-rule="evenodd" d="M32 16.333C32 7.49645 24.8366 0.333008 16 0.333008C7.16344 0.333008 0 7.49645 0 16.333C0 25.1696 7.16344 32.333 16 32.333C24.8366 32.333 32 25.1696 32 16.333ZM10.6955 11.006C10.4392 11.2472 10.3111 11.5534 10.3111 11.9245C10.3111 12.2956 10.4356 12.6036 10.6845 12.8486C10.9335 13.0935 11.2593 13.216 11.6619 13.216H11.6729C12.0903 13.216 12.4271 13.0935 12.6833 12.8486C12.9323 12.611 13.0567 12.3142 13.0567 11.9579C13.0567 11.5645 12.9286 11.2453 12.6723 11.0004C12.4234 10.7629 12.0976 10.6441 11.6949 10.6441C11.2849 10.6441 10.9517 10.7647 10.6955 11.006ZM10.454 14.2293V21.6665H12.8921V14.2293H10.454ZM14.2429 21.6665H16.681V17.5137C16.681 17.2539 16.7103 17.0535 16.7688 16.9125C16.8713 16.6601 17.0269 16.4467 17.2356 16.2723C17.4442 16.0979 17.706 16.0106 18.0208 16.0106C18.8408 16.0106 19.2509 16.571 19.2509 17.6918V21.6665H21.6889V17.4023C21.6889 16.3038 21.4327 15.4707 20.9202 14.9029C20.4077 14.335 19.7304 14.0511 18.8884 14.0511C17.9439 14.0511 17.2081 14.4631 16.681 15.287V14.2293H14.2429C14.2575 14.4668 14.2648 15.2053 14.2648 16.4449C14.2648 17.6844 14.2575 19.4249 14.2429 21.6665ZM16.681 15.287V15.3092H16.67L16.681 15.287Z" fill="#5E65B5"/>
</svg>
