<svg width="145" height="32" viewBox="0 0 145 32" fill="none" xmlns="http://www.w3.org/2000/svg">
<path fill-rule="evenodd" clip-rule="evenodd" d="M57.6619 22.4073C60.6986 22.4073 62.6414 20.1628 62.6414 17.4655C62.6414 14.6174 60.7175 12.2786 57.6619 12.2786C56.3604 12.2786 55.5305 12.8067 54.9269 13.5046H54.776V8.8457H52.0033V22.1244H53.8329L54.2479 20.8984H54.4177C55.059 21.8415 56.2473 22.4073 57.6619 22.4073ZM41.273 20.4268L40.5374 22.1244H37.4629L43.4232 9.14749H44.819L50.7793 22.1244H47.686L46.9504 20.4268H41.273ZM42.1972 18.2954H46.045L44.1965 13.995H44.0456L42.1972 18.2954ZM54.7195 17.3524C54.7195 18.7481 55.8512 19.9176 57.3413 19.9176C58.7559 19.9176 59.9065 18.8613 59.9065 17.3524C59.9065 15.8057 58.7748 14.7683 57.3413 14.7683C55.8889 14.7683 54.7195 15.9 54.7195 17.3524ZM69.0714 22.4073C71.7875 22.4073 73.8434 20.8418 73.8434 18.0503V12.5992H71.0141V17.805C71.0141 19.1442 70.3162 19.861 69.0902 19.861C67.8453 19.861 67.1663 19.1442 67.1663 17.7862V12.5803H64.3371V18.0691C64.3371 20.8229 66.2987 22.4073 69.0714 22.4073ZM78.8964 17.1638V22.1244H76.0671V12.5615H78.3305L78.5946 13.6555H78.7644C79.3114 12.901 80.1979 12.2786 81.7634 12.2786C84.3663 12.2786 85.7244 13.8818 85.7244 16.2772V22.1244H82.8951V16.8808C82.8951 15.5228 82.1595 14.806 80.9523 14.806C79.5566 14.806 78.8964 15.9 78.8964 17.1638ZM97.8128 22.4073C98.3032 22.4073 98.737 22.2942 99.152 22.1055V19.6724H98.9256C98.8125 19.7101 98.6993 19.7478 98.605 19.7478C98.1523 19.7478 98.1146 19.3894 98.0957 18.8613V8.8457H95.3419V13.5046H95.191C94.5874 12.8067 93.7575 12.2786 92.4561 12.2786C89.4004 12.2786 87.4765 14.6174 87.4765 17.4655C87.4765 20.1628 89.4004 22.4073 92.4372 22.4073C93.8707 22.4073 95.0401 21.8415 95.7003 20.8984H95.8512C95.8618 20.953 95.8731 21.0074 95.8855 21.0613L95.8982 21.1152C96.0664 21.8037 96.4288 22.4073 97.8128 22.4073ZM90.1926 17.3524C90.1926 18.8613 91.3432 19.9176 92.7767 19.9176C94.2479 19.9176 95.3796 18.7481 95.3796 17.3524C95.3796 15.9 94.2102 14.7683 92.7578 14.7683C91.3432 14.7683 90.1926 15.8057 90.1926 17.3524ZM110.637 22.4073C111.127 22.4073 111.561 22.2942 111.976 22.1055V19.6724H111.75C111.637 19.7101 111.523 19.7478 111.429 19.7478C110.976 19.7478 110.939 19.3895 110.92 18.8613V12.5803H108.883L108.619 13.6932H108.468C107.864 12.9764 106.997 12.2786 105.28 12.2786C102.225 12.2786 100.301 14.6174 100.301 17.4655C100.301 20.1628 102.225 22.4073 105.261 22.4073C106.695 22.4073 107.864 21.8415 108.524 20.8984H108.675C108.686 20.953 108.697 21.0074 108.71 21.0613L108.722 21.1152C108.89 21.8037 109.253 22.4073 110.637 22.4073ZM103.017 17.3524C103.017 18.8613 104.167 19.9176 105.601 19.9176C107.072 19.9176 108.204 18.7481 108.204 17.3524C108.204 15.9 107.034 14.7683 105.582 14.7683C104.167 14.7683 103.017 15.8057 103.017 17.3524ZM116.539 22.1244V17.1638C116.539 15.9 117.199 14.806 118.595 14.806C119.802 14.806 120.537 15.5228 120.537 16.8808V22.1244H123.367V16.2772C123.367 13.8818 122.009 12.2786 119.406 12.2786C117.84 12.2786 116.954 12.901 116.407 13.6555H116.237L115.973 12.5615H113.709V22.1244H116.539ZM133.324 21.7472C132.607 22.1433 131.607 22.4262 130.419 22.4262C127.194 22.4262 125.119 20.2948 125.119 17.3524C125.119 14.3911 127.212 12.2786 130.4 12.2786C131.588 12.2786 132.607 12.5426 133.324 12.9576V15.4285H133.116C132.513 15.0701 131.626 14.8249 130.645 14.8249C129.08 14.8249 128.005 15.8246 128.005 17.3524C128.005 18.8613 129.042 19.8987 130.664 19.8987C131.645 19.8987 132.513 19.6347 133.116 19.2763H133.324V21.7472ZM139.999 22.4262C141.564 22.4262 142.734 22.181 143.771 21.5963V19.5781H143.583C142.583 20.0119 141.696 20.2005 140.414 20.2005C139.037 20.2005 137.603 19.7478 137.264 18.1634H144.111C144.337 17.673 144.412 17.0506 144.412 16.5225C144.412 14.1459 142.658 12.2786 139.716 12.2786C136.849 12.2786 134.661 14.1647 134.661 17.3712C134.661 20.4646 136.792 22.4262 139.999 22.4262ZM137.283 16.3904H142.036V16.2584C141.998 15.2021 141.149 14.3156 139.754 14.3156C138.603 14.3156 137.585 14.9192 137.283 16.3904Z" fill="white"/>
<path fill-rule="evenodd" clip-rule="evenodd" d="M15.6098 28.4098C16.3935 28.4098 17.0288 29.0387 17.0288 29.8146C17.0288 30.5905 16.3935 31.2195 15.6098 31.2195C14.826 31.2195 14.1907 30.5905 14.1907 29.8146C14.1907 29.0387 14.826 28.4098 15.6098 28.4098ZM23.7215 27.646C24.0045 28.1313 23.8366 28.7519 23.3464 29.032C22.8562 29.3122 22.2294 29.146 21.9463 28.6607C21.6633 28.1754 21.8313 27.5548 22.3215 27.2746C22.8117 26.9945 23.4385 27.1607 23.7215 27.646ZM8.89804 27.2746C9.38823 27.5548 9.55618 28.1754 9.27317 28.6607C8.99016 29.146 8.36335 29.3122 7.87315 29.032C7.38296 28.7519 7.21501 28.1313 7.49802 27.646C7.78103 27.1607 8.40784 26.9945 8.89804 27.2746ZM21.039 6.45624C21.9112 6.95476 22.2529 8.0136 21.868 8.90833C23.2797 10.17 24.2953 11.8578 24.7081 13.767C25.6309 13.9293 26.3316 14.7275 26.3316 15.6878C26.3316 16.6481 25.6309 17.4463 24.7081 17.6088C24.2875 19.5536 23.2414 21.2688 21.7882 22.538C22.0772 23.3985 21.7267 24.3702 20.9024 24.8413C20.0641 25.3205 19.0181 25.1207 18.4139 24.4142C17.5526 24.6777 16.6373 24.8195 15.6886 24.8195C14.6938 24.8195 13.7358 24.6636 12.8381 24.3751C12.2399 25.1131 11.1708 25.3293 10.3171 24.8413C9.45891 24.3508 9.11431 23.3178 9.47008 22.4325C8.08421 21.1793 7.08583 19.5131 6.67383 17.6306C5.67212 17.5383 4.8879 16.7037 4.8879 15.6878C4.8879 14.6719 5.67212 13.8373 6.67394 13.7451C7.07868 11.8952 8.04971 10.2542 9.39832 9.00884C8.9416 8.09439 9.27542 6.97359 10.1806 6.45624C11.0709 5.94735 12.1955 6.2043 12.7762 7.02062L12.911 6.97738C13.7876 6.70369 14.7207 6.5561 15.6886 6.5561C16.6592 6.5561 17.5949 6.70452 18.4736 6.9797C19.0621 6.19581 20.1637 5.95598 21.039 6.45624ZM4.41266 22.0098C4.80453 22.6817 4.57198 23.5409 3.89325 23.9289C3.21452 24.3168 2.34663 24.0866 1.95476 23.4146C1.5629 22.7427 1.79545 21.8835 2.47418 21.4955C3.15291 21.1076 4.0208 21.3378 4.41266 22.0098ZM28.7453 21.4955C29.4241 21.8835 29.6566 22.7427 29.2647 23.4146C28.8729 24.0866 28.005 24.3168 27.3263 23.9289C26.6475 23.5409 26.415 22.6817 26.8069 22.0098C27.1987 21.3378 28.0666 21.1076 28.7453 21.4955ZM15.6886 7.80488C14.7957 7.80488 13.9371 7.95037 13.1358 8.21873C13.1108 8.86666 12.7604 9.4878 12.1515 9.83585C11.5582 10.175 10.8608 10.174 10.2897 9.89402C9.10401 10.977 8.25167 12.4124 7.90196 14.0321C8.45919 14.3768 8.82976 14.9895 8.82976 15.6878C8.82976 16.3861 8.45919 16.9988 7.90212 17.3436C8.25139 18.962 9.10265 20.3964 10.2867 21.4793C10.8809 21.1261 11.6455 21.0945 12.288 21.4617C12.9353 21.8317 13.2904 22.5102 13.2732 23.2013C14.0349 23.4413 14.8465 23.5707 15.6886 23.5707C16.4735 23.5707 17.2319 23.4583 17.9482 23.2488C17.913 22.5414 18.2694 21.8401 18.9315 21.4617C19.608 21.075 20.4199 21.1305 21.0256 21.5377C22.2239 20.4659 23.0912 19.0381 23.4577 17.4227C22.8233 17.0982 22.3898 16.4431 22.3898 15.6878C22.3898 14.9325 22.8233 14.2774 23.4574 13.9531C23.0916 12.3394 22.2259 10.913 21.0297 9.84132C20.4414 10.1727 19.6964 10.195 19.068 9.83585C18.443 9.47859 18.0904 8.83359 18.0824 8.16744C17.3269 7.93186 16.5227 7.80488 15.6886 7.80488ZM16.1451 11.9719C16.2854 12.0527 16.4023 12.168 16.4847 12.3065L19.1858 16.8519C19.4508 17.2977 19.3005 17.8718 18.8501 18.1341C18.7048 18.2188 18.5391 18.2634 18.3704 18.2634H12.9976C12.4751 18.2634 12.0516 17.8441 12.0516 17.3268C12.0516 17.1613 12.0958 16.9988 12.1799 16.8558L14.8516 12.3104C15.1143 11.8633 15.6935 11.7118 16.1451 11.9719ZM30.1946 14.6732C30.7607 14.6732 31.2195 15.1274 31.2195 15.6878C31.2195 16.2482 30.7607 16.7024 30.1946 16.7024C29.6286 16.7024 29.1697 16.2482 29.1697 15.6878C29.1697 15.1274 29.6286 14.6732 30.1946 14.6732ZM1.02488 14.6732C1.59091 14.6732 2.04977 15.1274 2.04977 15.6878C2.04977 16.2482 1.59091 16.7024 1.02488 16.7024C0.458856 16.7024 0 16.2482 0 15.6878C0 15.1274 0.458856 14.6732 1.02488 14.6732ZM29.2647 7.80488C29.6566 8.47682 29.4241 9.33603 28.7453 9.72398C28.0666 10.1119 27.1987 9.8817 26.8069 9.20975C26.415 8.53781 26.6475 7.6786 27.3263 7.29065C28.005 6.90271 28.8729 7.13293 29.2647 7.80488ZM3.89325 7.29065C4.57198 7.6786 4.80453 8.53781 4.41266 9.20975C4.0208 9.8817 3.15291 10.1119 2.47418 9.72398C1.79545 9.33603 1.5629 8.47682 1.95476 7.80488C2.34663 7.13293 3.21452 6.90271 3.89325 7.29065ZM9.13662 2.6369C9.41963 3.12219 9.25168 3.74273 8.76149 4.02292C8.27129 4.3031 7.64448 4.13683 7.36147 3.65153C7.07846 3.16624 7.24641 2.5457 7.7366 2.26552C8.2268 1.98534 8.85361 2.15161 9.13662 2.6369ZM23.4829 2.26552C23.9731 2.5457 24.1411 3.16624 23.858 3.65153C23.575 4.13683 22.9482 4.3031 22.458 4.02292C21.9678 3.74273 21.7999 3.12219 22.0829 2.6369C22.3659 2.15161 22.9927 1.98534 23.4829 2.26552ZM15.6098 0C16.3935 0 17.0288 0.628985 17.0288 1.40488C17.0288 2.18077 16.3935 2.80976 15.6098 2.80976C14.826 2.80976 14.1907 2.18077 14.1907 1.40488C14.1907 0.628985 14.826 0 15.6098 0Z" fill="white"/>
</svg>
