<svg width="32" height="33" viewBox="0 0 32 33" fill="none" xmlns="http://www.w3.org/2000/svg">
<path fill-rule="evenodd" clip-rule="evenodd" d="M16 0.333008C24.8366 0.333008 32 7.49645 32 16.333C32 25.1696 24.8366 32.333 16 32.333C7.16344 32.333 0 25.1696 0 16.333C0 7.49645 7.16344 0.333008 16 0.333008ZM15.9999 8.33301L15.6529 8.34042C11.3956 8.52255 8 12.0398 8 16.3522C8 20.2908 10.8318 23.5655 14.5653 24.2431L14.8542 24.2901L15.209 24.333H16.791L17.1458 24.2901C20.805 23.7641 23.6647 20.7561 23.9725 17.0218L23.9919 16.7174L24 16.3522L23.9922 15.9947C23.8149 11.9434 20.639 8.67279 16.6344 8.35786L16.3469 8.34042L15.9999 8.33301ZM11.7333 18.3186C14.7809 17.6203 17.3948 17.9207 19.5035 19.2124C19.7386 19.3562 19.8125 19.6641 19.6688 19.8998C19.5252 20.1361 19.2182 20.21 18.9833 20.066C17.1046 18.9151 14.7402 18.6552 11.9553 19.2927C11.687 19.3545 11.4195 19.1858 11.3585 18.917C11.2969 18.6479 11.4644 18.3799 11.7333 18.3186ZM11.4558 15.7912C14.3613 14.9075 17.9733 15.3355 20.4426 16.8566C20.7358 17.0375 20.828 17.4226 20.6477 17.7163C20.4671 18.0105 20.0831 18.1029 19.79 17.9221C17.64 16.5974 14.3618 16.2136 11.8182 16.9876C11.4884 17.0874 11.14 16.901 11.0397 16.5711C10.9405 16.2402 11.1265 15.8919 11.4558 15.7912ZM11.0038 13.0794C13.8296 12.2196 18.5273 12.3858 21.496 14.1523C21.8517 14.3639 21.9682 14.8242 21.7574 15.18C21.5465 15.5364 21.0869 15.6541 20.7322 15.4424C18.1534 13.9073 13.8999 13.7661 11.4381 14.5149C11.0427 14.6352 10.6248 14.4115 10.505 14.0153C10.3853 13.6187 10.6081 13.2 11.0038 13.0794Z" fill="#5E65B5"/>
</svg>
