<svg width="40" height="40" viewBox="0 0 40 40" fill="none" xmlns="http://www.w3.org/2000/svg">
<path fill-rule="evenodd" clip-rule="evenodd" d="M20.0003 13.4078C22.1338 13.4078 23.8778 15.1022 23.956 17.2153L23.9587 17.3772C24.3341 17.6594 24.6369 18.0167 24.8606 18.4176C24.9463 18.3266 25.0356 18.2385 25.1307 18.1559L25.2782 18.0365V18.0227C25.2782 15.8412 27.0535 14.0671 29.2365 14.0671C31.37 14.0671 33.114 15.7614 33.1922 17.8746L33.1949 18.0365C34.0182 18.6555 34.5144 19.626 34.5144 20.6597C34.5144 22.4294 33.1114 23.8779 31.3586 23.9529L31.2157 23.956H29.8963V28.1818C33.9479 30.1081 37.43 33.1908 39.8047 37.1397L40 37.4708L38.8587 38.1314C38.352 37.2566 37.7823 36.4303 37.1667 35.6471L36.8551 35.259L35.0256 35.7159L34.4801 37.3502C34.4275 37.5078 34.3177 37.6388 34.174 37.7183L34.0994 37.7536L30.8007 39.0721C30.7229 39.1031 30.6398 39.119 30.556 39.119L30.4757 39.1141V39.1141L30.3963 39.0998L27.7574 38.4406C27.6249 38.4071 27.5062 38.3337 27.4176 38.2312L27.3682 38.1663L26.2447 36.4819H24.6184C24.5417 36.4819 24.4654 36.4686 24.3934 36.4424L24.3229 36.412L19.045 33.775C18.7923 33.6487 18.6503 33.3761 18.6864 33.1006L18.7007 33.0254L19.3604 30.3884C19.4149 30.1686 19.5779 29.9947 19.789 29.9236L19.8704 29.9018L22.853 29.3059L23.7139 27.5852C22.4967 27.3729 21.2571 27.2523 20.0003 27.2523C16.2517 27.2523 12.6258 28.2281 9.44073 29.9951L9.11283 30.1807L9.99357 31.5012C10.0511 31.5877 10.0875 31.6869 10.0998 31.7896L10.1044 31.8671V33.6451L11.313 35.4568C11.4097 35.602 11.4444 35.7782 11.4116 35.9472L11.3896 36.031L10.7298 38.0088C10.6483 38.2539 10.4331 38.426 10.181 38.4553L10.1044 38.4597H7.73862L6.61246 39.5851C6.50965 39.6883 6.37615 39.7536 6.23295 39.7725L6.14603 39.7782H4.16685C3.96365 39.7782 3.77409 39.6853 3.65032 39.5287L3.60146 39.4578L1.99502 36.7825C1.77088 37.1113 1.55341 37.445 1.34569 37.7865L1.14133 38.1307L0 37.4701C2.3134 33.474 5.74849 30.3353 9.76809 28.345L10.1044 28.1818V23.956H8.78495C6.96607 23.956 5.4863 22.4773 5.4863 20.6597C5.4863 19.6798 5.93157 18.7578 6.6785 18.1371L6.80576 18.0365V18.0227C6.80576 15.8412 8.58109 14.0671 10.7641 14.0671C12.8976 14.0671 14.6416 15.7614 14.7198 17.8746L14.7225 18.0365C14.8742 18.1512 15.0115 18.2811 15.1401 18.4176C15.3358 18.0668 15.5921 17.7494 15.9046 17.4865L16.042 17.3772V17.3634C16.042 15.1819 17.8173 13.4078 20.0003 13.4078ZM7.99063 30.8769C6.16545 32.0833 4.51886 33.565 3.11664 35.2812L2.83947 35.6275L4.54025 38.4597H5.8729L6.99906 37.3343C7.10187 37.2311 7.23537 37.1658 7.37857 37.1469L7.46549 37.1412H9.62874L10.0358 35.9202L8.89578 34.2108C8.83825 34.1243 8.80183 34.0251 8.78957 33.9224L8.78495 33.8449V32.0669L7.99063 30.8769ZM25.0505 27.8621L23.8888 30.184C23.8113 30.34 23.6752 30.4572 23.512 30.5128L23.4283 30.5354L20.5387 31.1129L20.1092 32.8323L24.7741 35.1634H26.5976C26.7904 35.1634 26.9721 35.2477 27.0963 35.392L27.1458 35.4574L28.3235 37.2229L30.5085 37.7688L33.3255 36.6428L33.8889 34.9551C33.9507 34.7682 34.0933 34.6201 34.2747 34.5494L34.3547 34.5239L35.876 34.1435C33.0465 31.137 29.4148 28.989 25.4256 27.9557L25.0505 27.8621ZM15.6184 22.2432C15.0801 23.215 14.0771 23.8948 12.9043 23.9521L12.7433 23.956H11.4239V27.603C13.7778 26.6585 16.2954 26.0997 18.8832 25.9739L19.3406 25.9562V23.2967H18.0211C17.0711 23.2967 16.2207 22.8873 15.6184 22.2432ZM24.3822 22.2432C23.8176 22.8471 23.0349 23.2446 22.1564 23.292L21.9795 23.2967H20.6601V25.9562C23.2558 26.0309 25.7868 26.5408 28.1597 27.4402L28.5768 27.603V23.956H27.2573C26.0157 23.956 24.945 23.2592 24.3822 22.2432ZM29.2365 15.3856C27.7812 15.3856 26.5976 16.5683 26.5976 18.0227L26.6028 18.0982V18.0982L26.6134 18.1723L26.6286 18.2995C26.6563 18.5613 26.5257 18.8144 26.2961 18.9436C25.6681 19.297 25.2782 19.9543 25.2782 20.6597C25.2782 21.7112 26.1039 22.5738 27.1412 22.6341L27.2573 22.6375H28.5768V21.6717L26.8919 20.5489L27.6235 19.4519L28.5768 20.0875V18.6819H29.8963V20.0875L30.8502 19.4519L31.5819 20.5489L29.8963 21.6717V22.6375H31.2157C32.3069 22.6375 33.1949 21.7501 33.1949 20.6597C33.1949 19.9543 32.805 19.297 32.1776 18.9443C31.9735 18.8294 31.8476 18.6167 31.8416 18.387L31.8451 18.3002L31.8603 18.173C31.8669 18.1229 31.8754 18.0741 31.8754 18.0227C31.8754 16.5683 30.6919 15.3856 29.2365 15.3856ZM10.7641 15.3856C9.30877 15.3856 8.12522 16.5683 8.12522 18.0227L8.13041 18.0982V18.0982L8.14105 18.1723L8.15622 18.2995C8.18393 18.5613 8.05331 18.8144 7.82372 18.9436C7.19566 19.297 6.80576 19.9543 6.80576 20.6597C6.80576 21.7112 7.63146 22.5738 8.66884 22.6341L8.78494 22.6375H10.1044V21.6717L8.41946 20.5489L9.15109 19.4519L10.1044 20.0875V18.6819H11.4239V20.0875L12.3778 19.4519L13.1095 20.5489L11.4239 21.6717V22.6375H12.7433C13.8345 22.6375 14.7225 21.7501 14.7225 20.6597C14.7225 19.9543 14.3326 19.297 13.7052 18.9443C13.5011 18.8294 13.3752 18.6167 13.3692 18.387L13.3727 18.3002L13.3879 18.173C13.3945 18.1229 13.403 18.0741 13.403 18.0227C13.403 16.5683 12.2195 15.3856 10.7641 15.3856ZM20.0003 14.7264C18.545 14.7264 17.3614 15.9091 17.3614 17.3634L17.3666 17.439V17.439L17.3772 17.513L17.3924 17.6403C17.4201 17.902 17.2895 18.1552 17.0599 18.2844C16.4319 18.6377 16.042 19.295 16.042 20.0004C16.042 21.0519 16.8677 21.9146 17.905 21.9748L18.0211 21.9782H19.3406V21.0124L17.6557 19.8897L18.3873 18.7927L19.3406 19.4282V18.0227H20.6601V19.4282L21.614 18.7927L22.3457 19.8897L20.6601 21.0124V21.9782H21.9795C23.0707 21.9782 23.9587 21.0908 23.9587 20.0004C23.9587 19.295 23.5688 18.6377 22.9414 18.285C22.7373 18.1702 22.6114 17.9574 22.6054 17.7277L22.6089 17.6409L22.6241 17.5137C22.6307 17.4636 22.6392 17.4148 22.6392 17.3634C22.6392 15.9091 21.4557 14.7264 20.0003 14.7264ZM3.50712 8.13377C3.82181 8.13377 4.10681 8.31902 4.2348 8.60646C4.72891 9.72387 5.12764 10.1488 6.18389 10.636L6.33207 10.7029L6.40809 10.7414C6.65255 10.8823 6.80576 11.1442 6.80576 11.4301C6.80576 11.7445 6.62038 12.03 6.33273 12.1572L6.04438 12.2902C5.09131 12.7513 4.70711 13.1869 4.23546 14.2523C4.10681 14.5411 3.82181 14.7264 3.50712 14.7264C3.19243 14.7264 2.90742 14.5411 2.77944 14.2543C2.26287 13.0861 1.85054 12.6747 0.682159 12.1579C0.393858 12.03 0.208474 11.7445 0.208474 11.4301C0.208474 11.1156 0.393858 10.8301 0.6815 10.7029C1.85054 10.186 2.26221 9.77466 2.77878 8.60777C2.90742 8.31902 3.19243 8.13377 3.50712 8.13377ZM36.4935 8.13377C36.8082 8.13377 37.0932 8.31902 37.2219 8.60646L37.3548 8.89459C37.7938 9.80155 38.2101 10.1926 39.1703 10.6359L39.3185 10.7029L39.3945 10.7414C39.639 10.8823 39.7922 11.1442 39.7922 11.4301C39.7922 11.7445 39.6068 12.03 39.3192 12.1572L39.0308 12.2902C38.0777 12.7513 37.6935 13.1869 37.2219 14.2523C37.0932 14.5411 36.8082 14.7264 36.4935 14.7264C36.1788 14.7264 35.8938 14.5411 35.7659 14.2543C35.2493 13.0861 34.837 12.6747 33.6686 12.1579C33.3803 12.03 33.1949 11.7445 33.1949 11.4301C33.1949 11.1156 33.3803 10.8301 33.6679 10.7029C34.837 10.186 35.2486 9.77466 35.7652 8.60777C35.8938 8.31902 36.1788 8.13377 36.4935 8.13377ZM3.50712 10.0621C3.14295 10.6449 2.72204 11.0655 2.13818 11.4301C2.72204 11.794 3.14229 12.2152 3.50712 12.798C3.87129 12.2152 4.29219 11.7946 4.87605 11.4301C4.29219 11.0662 3.87195 10.6449 3.50712 10.0621ZM36.4935 10.0621C36.1294 10.6449 35.7085 11.0655 35.1246 11.4301C35.7085 11.794 36.1287 12.2152 36.4935 12.798C36.8577 12.2152 37.2786 11.7946 37.8625 11.4301C37.2786 11.0662 36.8584 10.6449 36.4935 10.0621ZM22.6392 0.222656C22.9539 0.222656 23.2389 0.407908 23.3669 0.695345L23.4999 0.983494C23.939 1.89054 24.3558 2.28202 25.316 2.7249L25.4642 2.79179L25.5402 2.83032C25.7847 2.97117 25.9379 3.23307 25.9379 3.51895C25.9379 3.83342 25.7525 4.11888 25.4649 4.24612C24.2958 4.76297 23.8842 5.17435 23.3676 6.34124C23.2389 6.63 22.9539 6.81525 22.6392 6.81525C22.3246 6.81525 22.0396 6.63 21.9116 6.34322C21.395 5.17501 20.9827 4.76363 19.8143 4.24677C19.526 4.11888 19.3406 3.83342 19.3406 3.51895C19.3406 3.20449 19.526 2.91903 19.8136 2.79179C20.9827 2.27493 21.3943 1.86355 21.9109 0.696664C22.0396 0.407908 22.3246 0.222656 22.6392 0.222656ZM22.6392 2.15099C22.2751 2.73377 21.8542 3.15438 21.2703 3.51895C21.8542 3.88286 22.2744 4.30413 22.6392 4.88692C23.0034 4.30413 23.4243 3.88352 24.0082 3.51895C23.4243 3.15504 23.0041 2.73377 22.6392 2.15099Z" fill="url(#paint0_linear_194_31247)"/>
<defs>
<linearGradient id="paint0_linear_194_31247" x1="40" y1="20.0004" x2="17.3819" y2="9.65186" gradientUnits="userSpaceOnUse">
<stop stop-color="#21AE7B"/>
<stop offset="1" stop-color="#747DDD"/>
</linearGradient>
</defs>
</svg>
