<svg width="40" height="40" viewBox="0 0 40 40" fill="none" xmlns="http://www.w3.org/2000/svg">
<path fill-rule="evenodd" clip-rule="evenodd" d="M20.0003 13.4074C22.1338 13.4074 23.8778 15.1017 23.956 17.2148L23.9587 17.3768C24.3341 17.6589 24.6369 18.0162 24.8606 18.4171C24.9463 18.3261 25.0356 18.238 25.1307 18.1555L25.2782 18.036V18.0222C25.2782 15.8407 27.0535 14.0666 29.2365 14.0666C31.37 14.0666 33.114 15.761 33.1922 17.8741L33.1949 18.036C34.0182 18.6551 34.5144 19.6255 34.5144 20.6592C34.5144 22.429 33.1114 23.8774 31.3586 23.9525L31.2157 23.9555H29.8963V28.1814C33.9479 30.1076 37.43 33.1903 39.8047 37.1392L40 37.4703L38.8587 38.1309C38.352 37.2562 37.7823 36.4298 37.1667 35.6466L36.8551 35.2585L35.0256 35.7154L34.4801 37.3497C34.4275 37.5073 34.3177 37.6383 34.174 37.7178L34.0994 37.7531L30.8007 39.0717C30.7229 39.1026 30.6398 39.1185 30.556 39.1185L30.4757 39.1136V39.1136L30.3963 39.0993L27.7574 38.4401C27.6249 38.4066 27.5062 38.3332 27.4176 38.2307L27.3682 38.1658L26.2447 36.4814H24.6184C24.5417 36.4814 24.4654 36.4681 24.3934 36.4419L24.3229 36.4115L19.045 33.7745C18.7923 33.6482 18.6503 33.3757 18.6864 33.1001L18.7007 33.0249L19.3604 30.3879C19.4149 30.1681 19.5779 29.9942 19.789 29.9231L19.8704 29.9014L22.853 29.3054L23.7139 27.5847C22.4967 27.3724 21.2571 27.2518 20.0003 27.2518C16.2517 27.2518 12.6258 28.2276 9.44073 29.9946L9.11283 30.1802L9.99357 31.5007C10.0511 31.5872 10.0875 31.6864 10.0998 31.7891L10.1044 31.8666V33.6446L11.313 35.4563C11.4097 35.6015 11.4444 35.7777 11.4116 35.9468L11.3896 36.0305L10.7298 38.0083C10.6483 38.2534 10.4331 38.4255 10.181 38.4548L10.1044 38.4592H7.73862L6.61246 39.5846C6.50965 39.6878 6.37615 39.7531 6.23295 39.772L6.14603 39.7777H4.16685C3.96365 39.7777 3.77409 39.6849 3.65032 39.5283L3.60146 39.4573L1.99502 36.7821C1.77088 37.1109 1.55341 37.4445 1.34569 37.786L1.14133 38.1302L0 37.4697C2.3134 33.4735 5.74849 30.3348 9.76809 28.3445L10.1044 28.1814V23.9555H8.78495C6.96607 23.9555 5.4863 22.4768 5.4863 20.6592C5.4863 19.6793 5.93157 18.7573 6.6785 18.1366L6.80576 18.036V18.0222C6.80576 15.8407 8.58109 14.0666 10.7641 14.0666C12.8976 14.0666 14.6416 15.761 14.7198 17.8741L14.7225 18.036C14.8742 18.1507 15.0115 18.2806 15.1401 18.4171C15.3358 18.0663 15.5921 17.7489 15.9046 17.486L16.042 17.3768V17.3629C16.042 15.1814 17.8173 13.4074 20.0003 13.4074ZM7.99063 30.8764C6.16545 32.0828 4.51886 33.5645 3.11664 35.2807L2.83947 35.627L4.54025 38.4592H5.8729L6.99906 37.3338C7.10187 37.2306 7.23537 37.1653 7.37857 37.1464L7.46549 37.1407H9.62874L10.0358 35.9197L8.89578 34.2103C8.83825 34.1238 8.80183 34.0246 8.78957 33.9219L8.78495 33.8444V32.0664L7.99063 30.8764ZM25.0505 27.8616L23.8888 30.1835C23.8113 30.3395 23.6752 30.4567 23.512 30.5123L23.4283 30.5349L20.5387 31.1124L20.1092 32.8318L24.7741 35.1629H26.5976C26.7904 35.1629 26.9721 35.2472 27.0963 35.3915L27.1458 35.4569L28.3235 37.2224L30.5085 37.7683L33.3255 36.6423L33.8889 34.9546C33.9507 34.7677 34.0933 34.6196 34.2747 34.5489L34.3547 34.5234L35.876 34.143C33.0465 31.1365 29.4148 28.9885 25.4256 27.9552L25.0505 27.8616ZM15.6184 22.2427C15.0801 23.2145 14.0771 23.8943 12.9043 23.9516L12.7433 23.9555H11.4239V27.6025C13.7778 26.658 16.2954 26.0992 18.8832 25.9734L19.3406 25.9557V23.2962H18.0211C17.0711 23.2962 16.2207 22.8868 15.6184 22.2427ZM24.3822 22.2427C23.8176 22.8466 23.0349 23.2441 22.1564 23.2915L21.9795 23.2962H20.6601V25.9557C23.2558 26.0304 25.7868 26.5403 28.1597 27.4398L28.5768 27.6025V23.9555H27.2573C26.0157 23.9555 24.945 23.2587 24.3822 22.2427ZM29.2365 15.3851C27.7812 15.3851 26.5976 16.5678 26.5976 18.0222L26.6028 18.0977V18.0977L26.6134 18.1718L26.6286 18.2991C26.6563 18.5608 26.5257 18.8139 26.2961 18.9432C25.6681 19.2965 25.2782 19.9538 25.2782 20.6592C25.2782 21.7107 26.1039 22.5733 27.1412 22.6336L27.2573 22.637H28.5768V21.6712L26.8919 20.5484L27.6235 19.4514L28.5768 20.087V18.6814H29.8963V20.087L30.8502 19.4514L31.5819 20.5484L29.8963 21.6712V22.637H31.2157C32.3069 22.637 33.1949 21.7496 33.1949 20.6592C33.1949 19.9538 32.805 19.2965 32.1776 18.9438C31.9735 18.829 31.8476 18.6162 31.8416 18.3865L31.8451 18.2997L31.8603 18.1725C31.8669 18.1224 31.8754 18.0736 31.8754 18.0222C31.8754 16.5678 30.6919 15.3851 29.2365 15.3851ZM10.7641 15.3851C9.30877 15.3851 8.12522 16.5678 8.12522 18.0222L8.13041 18.0977V18.0977L8.14105 18.1718L8.15622 18.2991C8.18393 18.5608 8.05331 18.8139 7.82372 18.9432C7.19566 19.2965 6.80576 19.9538 6.80576 20.6592C6.80576 21.7107 7.63146 22.5733 8.66884 22.6336L8.78494 22.637H10.1044V21.6712L8.41946 20.5484L9.15109 19.4514L10.1044 20.087V18.6814H11.4239V20.087L12.3778 19.4514L13.1095 20.5484L11.4239 21.6712V22.637H12.7433C13.8345 22.637 14.7225 21.7496 14.7225 20.6592C14.7225 19.9538 14.3326 19.2965 13.7052 18.9438C13.5011 18.829 13.3752 18.6162 13.3692 18.3865L13.3727 18.2997L13.3879 18.1725C13.3945 18.1224 13.403 18.0736 13.403 18.0222C13.403 16.5678 12.2195 15.3851 10.7641 15.3851ZM20.0003 14.7259C18.545 14.7259 17.3614 15.9086 17.3614 17.3629L17.3666 17.4385V17.4385L17.3772 17.5126L17.3924 17.6398C17.4201 17.9015 17.2895 18.1547 17.0599 18.2839C16.4319 18.6373 16.042 19.2945 16.042 19.9999C16.042 21.0514 16.8677 21.9141 17.905 21.9744L18.0211 21.9777H19.3406V21.0119L17.6557 19.8892L18.3873 18.7922L19.3406 19.4277V18.0222H20.6601V19.4277L21.614 18.7922L22.3457 19.8892L20.6601 21.0119V21.9777H21.9795C23.0707 21.9777 23.9587 21.0904 23.9587 19.9999C23.9587 19.2945 23.5688 18.6373 22.9414 18.2846C22.7373 18.1697 22.6114 17.9569 22.6054 17.7272L22.6089 17.6405L22.6241 17.5132C22.6307 17.4631 22.6392 17.4143 22.6392 17.3629C22.6392 15.9086 21.4557 14.7259 20.0003 14.7259ZM3.50712 8.13328C3.82181 8.13328 4.10681 8.31853 4.2348 8.60597C4.72891 9.72338 5.12764 10.1483 6.18389 10.6355L6.33207 10.7024L6.40809 10.7409C6.65255 10.8818 6.80576 11.1437 6.80576 11.4296C6.80576 11.744 6.62038 12.0295 6.33273 12.1567L6.04438 12.2897C5.09131 12.7509 4.70711 13.1864 4.23546 14.2519C4.10681 14.5406 3.82181 14.7259 3.50712 14.7259C3.19243 14.7259 2.90742 14.5406 2.77944 14.2538C2.26287 13.0856 1.85054 12.6743 0.682159 12.1574C0.393858 12.0295 0.208474 11.744 0.208474 11.4296C0.208474 11.1151 0.393858 10.8296 0.6815 10.7024C1.85054 10.1856 2.26221 9.77417 2.77878 8.60729C2.90742 8.31853 3.19243 8.13328 3.50712 8.13328ZM36.4935 8.13328C36.8082 8.13328 37.0932 8.31853 37.2219 8.60597L37.3548 8.8941C37.7938 9.80106 38.2101 10.1921 39.1703 10.6354L39.3185 10.7024L39.3945 10.7409C39.639 10.8818 39.7922 11.1437 39.7922 11.4296C39.7922 11.744 39.6068 12.0295 39.3192 12.1567L39.0308 12.2897C38.0777 12.7509 37.6935 13.1864 37.2219 14.2519C37.0932 14.5406 36.8082 14.7259 36.4935 14.7259C36.1788 14.7259 35.8938 14.5406 35.7659 14.2538C35.2493 13.0856 34.837 12.6743 33.6686 12.1574C33.3803 12.0295 33.1949 11.744 33.1949 11.4296C33.1949 11.1151 33.3803 10.8296 33.6679 10.7024C34.837 10.1856 35.2486 9.77417 35.7652 8.60729C35.8938 8.31853 36.1788 8.13328 36.4935 8.13328ZM3.50712 10.0616C3.14295 10.6444 2.72204 11.065 2.13818 11.4296C2.72204 11.7935 3.14229 12.2148 3.50712 12.7975C3.87129 12.2148 4.29219 11.7941 4.87605 11.4296C4.29219 11.0657 3.87195 10.6444 3.50712 10.0616ZM36.4935 10.0616C36.1294 10.6444 35.7085 11.065 35.1246 11.4296C35.7085 11.7935 36.1287 12.2148 36.4935 12.7975C36.8577 12.2148 37.2786 11.7941 37.8625 11.4296C37.2786 11.0657 36.8584 10.6444 36.4935 10.0616ZM22.6392 0.222168C22.9539 0.222168 23.2389 0.40742 23.3669 0.694857L23.4999 0.983005C23.939 1.89005 24.3558 2.28153 25.316 2.72441L25.4642 2.7913L25.5402 2.82983C25.7847 2.97068 25.9379 3.23259 25.9379 3.51846C25.9379 3.83293 25.7525 4.11839 25.4649 4.24563C24.2958 4.76249 23.8842 5.17386 23.3676 6.34075C23.2389 6.62951 22.9539 6.81476 22.6392 6.81476C22.3246 6.81476 22.0396 6.62951 21.9116 6.34273C21.395 5.17452 20.9827 4.76315 19.8143 4.24629C19.526 4.11839 19.3406 3.83293 19.3406 3.51846C19.3406 3.204 19.526 2.91854 19.8136 2.7913C20.9827 2.27444 21.3943 1.86306 21.9109 0.696175C22.0396 0.40742 22.3246 0.222168 22.6392 0.222168ZM22.6392 2.1505C22.2751 2.73329 21.8542 3.15389 21.2703 3.51846C21.8542 3.88238 22.2744 4.30364 22.6392 4.88643C23.0034 4.30364 23.4243 3.88303 24.0082 3.51846C23.4243 3.15455 23.0041 2.73329 22.6392 2.1505Z" fill="#5E65B5"/>
</svg>
