<svg width="24" height="21" viewBox="0 0 24 21" fill="none" xmlns="http://www.w3.org/2000/svg">
<path fill-rule="evenodd" clip-rule="evenodd" d="M21.7332 0.675867L21.6596 0.674805H2.34043L2.26977 0.675803C1.05668 0.710854 0.0739418 1.68631 0.00406003 2.90886L0.00104603 2.97966L2.0057e-05 3.05158L0 17.7618L0.000985712 17.8337C0.0355645 19.0684 0.996064 20.0664 2.19728 20.1374L2.26684 20.1404L2.33751 20.1415L21.6596 20.1415L21.7302 20.1405C22.9433 20.1054 23.9261 19.13 23.9959 17.9074L23.999 17.8366L24 17.7647L24 3.05445L23.999 2.98254C23.9644 1.74792 23.0039 0.749829 21.8027 0.678924L21.7332 0.675867ZM22.5457 17.7712L22.5458 8.69792H1.45417V17.7647L1.45571 17.8165L1.46025 17.8664C1.51085 18.2952 1.85356 18.6276 2.27947 18.6556L2.33087 18.6574L21.6625 18.6575L21.7139 18.6559L21.7634 18.6513C22.1885 18.5999 22.5164 18.2527 22.544 17.823L22.5457 17.7712ZM21.7205 2.16066L21.6691 2.15887L2.33751 2.15876L2.28613 2.16034L2.23665 2.16494C1.81151 2.21634 1.48356 2.56359 1.45603 2.99324L1.45427 3.04504L1.45417 7.21399H22.5458V3.05158L22.5443 2.9998L22.5398 2.9499C22.4892 2.52105 22.1464 2.18867 21.7205 2.16066Z" fill="#777777"/>
</svg>
