<svg width="24" height="25" viewBox="0 0 24 25" fill="none" xmlns="http://www.w3.org/2000/svg">
<path fill-rule="evenodd" clip-rule="evenodd" d="M14.2242 3.61283C18.5287 4.66564 21.723 8.54851 21.723 13.1774C21.723 14.3164 21.5296 15.4102 21.1738 16.4278C21.0715 16.4149 20.9672 16.4082 20.8614 16.4082C19.5019 16.4082 18.3999 17.5103 18.3999 18.8697C18.3999 19.3568 18.5413 19.8108 18.7854 20.193C17.008 21.9434 14.5685 23.0236 11.8768 23.0236C9.2164 23.0236 6.80244 21.9685 5.03056 20.2539C5.29922 19.8595 5.45628 19.3829 5.45628 18.8697C5.45628 17.5103 4.35421 16.4082 2.99474 16.4082C2.85508 16.4082 2.71813 16.4198 2.58481 16.4422C2.22586 15.4205 2.03064 14.3218 2.03064 13.1774C2.03064 8.54851 5.22489 4.66564 9.5294 3.61283C9.84449 4.60911 10.7763 5.33128 11.8768 5.33128C12.9773 5.33128 13.9091 4.60911 14.2242 3.61283ZM19.6732 19.1918C19.7884 19.6178 20.1266 19.9523 20.5549 20.062C20.6529 20.0872 20.7556 20.1005 20.8614 20.1005C21.5411 20.1005 22.0922 19.5495 22.0922 18.8697C22.0922 18.5716 21.9862 18.2983 21.8098 18.0853C21.5841 17.8127 21.243 17.639 20.8614 17.639C20.7883 17.639 20.7166 17.6454 20.647 17.6576C20.0695 17.7591 19.6306 18.2632 19.6306 18.8697C19.6306 18.9812 19.6454 19.0891 19.6732 19.1918ZM22.3179 16.8852C22.7296 15.7259 22.9537 14.4779 22.9537 13.1774C22.9537 7.88727 19.2453 3.46327 14.2862 2.36329C14.0527 1.24678 13.0627 0.408203 11.8768 0.408203C10.6909 0.408203 9.70091 1.24678 9.46741 2.36329C4.50833 3.46327 0.79987 7.88727 0.79987 13.1774C0.79987 14.501 1.032 15.7703 1.45776 16.9469C0.894167 17.398 0.533203 18.0917 0.533203 18.8697C0.533203 20.2292 1.63527 21.3313 2.99474 21.3313C3.39338 21.3313 3.76988 21.2365 4.10295 21.0683C6.10267 23.0385 8.84775 24.2544 11.8768 24.2544C14.9238 24.2544 17.6835 23.0241 19.6862 21.0331C20.0354 21.2233 20.4358 21.3313 20.8614 21.3313C22.2209 21.3313 23.323 20.2292 23.323 18.8697C23.323 18.0553 22.9274 17.3332 22.3179 16.8852ZM1.76397 18.8697C1.76397 18.6083 1.84546 18.366 1.98443 18.1667C2.20682 17.8477 2.57641 17.639 2.99474 17.639C3.01998 17.639 3.04504 17.6397 3.06989 17.6412C3.07974 17.6418 3.08956 17.6425 3.09934 17.6434C3.73012 17.6964 4.22551 18.2252 4.22551 18.8697C4.22551 19.0156 4.20014 19.1555 4.15358 19.2853C4.00699 19.694 3.65036 20.0026 3.21381 20.0811C3.14272 20.0938 3.06951 20.1005 2.99474 20.1005C2.31501 20.1005 1.76397 19.5495 1.76397 18.8697ZM10.7628 3.39361C10.6879 3.23466 10.646 3.05709 10.646 2.86974C10.646 2.61484 10.7235 2.37804 10.8562 2.18161C10.8647 2.16909 10.8734 2.15674 10.8823 2.14455C11.1061 1.83807 11.4682 1.63897 11.8768 1.63897C12.2854 1.63897 12.6475 1.83807 12.8713 2.14455C13.0199 2.34793 13.1076 2.5986 13.1076 2.86974C13.1076 3.03968 13.0731 3.20157 13.0108 3.34881C13.0045 3.3639 12.9978 3.37883 12.9908 3.39361C12.794 3.81136 12.3692 4.10051 11.8768 4.10051C11.3844 4.10051 10.9596 3.81136 10.7628 3.39361ZM12.8262 8.96165C12.7285 8.79564 12.5898 8.65755 12.4234 8.56068C11.8879 8.24891 11.2012 8.43051 10.8895 8.96629L7.72132 14.4136C7.62162 14.585 7.5691 14.7798 7.5691 14.9781C7.5691 15.598 8.07139 16.1005 8.69098 16.1005H15.0624C15.2625 16.1005 15.4589 16.047 15.6313 15.9455C16.1653 15.6312 16.3436 14.9432 16.0294 14.4089L12.8262 8.96165ZM8.87987 14.8695L11.8596 9.7458L14.8724 14.8695H8.87987Z" fill="url(#paint0_linear_6_10791)"/>
<defs>
<linearGradient id="paint0_linear_6_10791" x1="23.323" y1="12.3313" x2="10.1936" y2="6.65408" gradientUnits="userSpaceOnUse">
<stop stop-color="#21AE7B"/>
<stop offset="1" stop-color="#747DDD"/>
</linearGradient>
</defs>
</svg>
