<svg width="20" height="25" viewBox="0 0 20 25" fill="none" xmlns="http://www.w3.org/2000/svg">
<path fill-rule="evenodd" clip-rule="evenodd" d="M19.5392 12.625L19.5785 12.6712L19.6142 12.7179C19.9599 13.1908 19.9648 13.8428 19.5448 14.4163L19.4999 14.4754L19.4183 14.571L19.2401 14.774L18.7462 15.3217L18.041 16.0902L16.9264 17.2914L15.3473 18.9782L14.6473 19.7209L14.2865 20.1015C13.5357 20.8855 12.9417 21.2494 12.2934 21.3874L12.2237 21.4013L12.1242 21.4182L12.0269 21.4319L11.9776 21.4379L11.8813 21.4479L11.7855 21.4563L11.611 21.4689L11.5847 21.4769L11.5631 21.482L11.5417 21.4862L11.4986 21.4922L11.4521 21.4953L11.3945 21.4955L11.2285 21.5096L11.0411 21.5234L10.7252 21.5436L10.3738 21.5627L10.1229 21.5746L9.72779 21.5908L9.31632 21.6048L8.896 21.616L8.61427 21.6216L8.33395 21.6258L8.05695 21.6282L7.65344 21.6283L7.39533 21.6258L7.11038 21.6211L6.96494 21.6213L6.83256 21.6242C6.7905 21.6257 6.75045 21.6277 6.71222 21.6302L6.6029 21.6392C6.32512 21.6676 6.15377 21.7306 6.00092 21.8399L5.97246 21.8609L5.91713 21.905L5.86007 21.9542L5.80033 22.0084L5.6973 22.1043L5.55153 22.2254L5.48407 22.2909L5.36962 22.4063L5.24313 22.538L4.96358 22.8384L4.66882 23.1642L4.42805 23.4353L4.08549 23.8282L3.84236 24.1141L3.77866 24.1919L3.77884 24.2036L3.74021 24.2423C3.66232 24.3202 3.56576 24.3756 3.45921 24.3982L3.41297 24.4059L3.35872 24.4082L3.31269 24.4051C3.22631 24.3946 3.14186 24.3595 3.06489 24.3033L3.02706 24.2736L2.99153 24.2405L0.286951 21.432C0.082261 21.2272 0.082261 20.9135 0.28981 20.7059L0.441447 20.5614L0.591125 20.4151L0.797558 20.2076L1.02429 19.9733L1.35697 19.6224L1.51081 19.4585L2.05309 18.8963L2.31865 18.6249L2.49441 18.4478L2.66894 18.2748L2.75675 18.189L2.93056 18.0219C4.58837 16.447 5.95232 15.7712 7.77989 15.861L7.89236 15.8674L9.92873 15.9713L10.2313 15.992L10.2609 15.995L10.4747 15.9964L10.5738 16.0007L10.6425 16.0062L10.809 16.0245L10.9858 16.0465C11.4673 16.0867 11.8644 16.237 12.1327 16.4598L12.1815 16.5024L12.2178 16.5375L13.0075 15.9538L14.398 14.9373L15.5235 14.1243L16.5033 13.4264L17.011 13.0711L17.4477 12.7719L17.6584 12.6313L17.7956 12.5423L17.913 12.4686L17.9815 12.4276L18.0627 12.3823C18.5832 12.1081 19.1647 12.2054 19.5392 12.625ZM2.40895 19.9682L2.37016 20.0089L2.34387 20.0344L2.30508 20.0692C2.29772 20.0755 2.28994 20.082 2.28181 20.0886L2.22917 20.1283L2.20045 20.1475L2.16677 20.1675L2.26306 20.1253L2.06381 20.338L1.45797 20.9712L1.37765 21.0566L3.33496 23.1088L3.47615 22.9441L3.9813 22.3671L4.21397 22.1029L2.40895 19.9682ZM18.6008 13.2631L18.5723 13.2775L18.5082 13.3146L18.3489 13.4152L18.1342 13.5575L17.6276 13.9048L17.0741 14.2924L15.9494 15.0926L15.1262 15.6849L13.959 16.5322L13.085 17.1728L12.4877 17.6152L12.4817 17.6308C12.3312 17.9898 11.9798 18.2886 11.4973 18.4736L11.4239 18.5005L11.2809 18.5462C11.2564 18.5539 11.2315 18.5617 11.2062 18.5695L10.9694 18.6409L10.8439 18.6775L10.5375 18.7642L10.0774 18.8883L9.63719 19.002L9.01474 19.1565L8.5557 19.2694C8.28178 19.338 8.00594 19.1681 7.93709 18.8926C7.87173 18.6309 8.02277 18.3678 8.27497 18.2839L8.30265 18.2756L8.30851 18.2731L8.34802 18.2606L8.50535 18.2193L9.3575 18.0057L9.77587 17.8973L9.99307 17.8393L10.2854 17.759L10.43 17.718L10.7148 17.6345L10.8978 17.5783L10.9841 17.551L11.1152 17.5081C11.3228 17.4442 11.4616 17.3557 11.514 17.2879L11.5246 17.2718L11.5212 17.2675C11.458 17.1993 11.2757 17.1193 10.98 17.083L10.9149 17.0759L10.5427 17.0502L10.381 17.0366L10.2584 17.0251L10.0875 17.0229L9.89716 17.017L9.46065 16.9967L8.75424 16.9555L7.85202 16.8972C6.47471 16.811 5.40121 17.2569 4.15538 18.3232L4.05666 18.4087L3.89204 18.5553L3.72662 18.7071L3.55961 18.8644L3.47634 18.9441L3.30765 19.1081L3.13699 19.2767L4.93204 21.4L5.02472 21.3075L5.10254 21.2316L5.17947 21.1594L5.25461 21.0925C5.70428 20.7045 6.15835 20.5658 7.10361 20.5661L7.20317 20.5666L7.54616 20.5716L7.80184 20.573L8.06529 20.5724L8.33441 20.5701L8.6069 20.566L9.01817 20.5569L9.29041 20.5492L9.69127 20.5353L10.0766 20.5191L10.4394 20.5011L10.6648 20.4884L10.974 20.4683L11.1573 20.4547L11.3088 20.4416L11.3354 20.4339C11.3499 20.4301 11.3642 20.427 11.3784 20.4245L11.4215 20.4186L11.468 20.4155L11.5259 20.4152L11.6981 20.401L11.8224 20.3885L11.9028 20.3782L11.9823 20.3658L12.0612 20.3507L12.143 20.3314C12.4314 20.2568 12.7071 20.1086 13.0337 19.8348L13.1045 19.7742L13.2213 19.6689C13.2961 19.5994 13.3736 19.5237 13.4536 19.4418L13.5346 19.3577L15.2248 17.5533L17.2601 15.3646L18.0988 14.4525L18.4923 14.018L18.6529 13.8369L18.7156 13.7647C18.8615 13.6024 18.8758 13.4336 18.8039 13.3204L18.7872 13.297L18.7722 13.2736C18.7557 13.2406 18.6988 13.2181 18.6008 13.2631ZM5.4638 6.08251C7.39045 6.13462 9.15377 7.32823 9.94609 9.09892C10.7018 10.8131 10.443 12.8253 9.29137 14.2896L9.22647 14.3704L9.13371 14.481L9.10395 14.4886L9.08662 14.4978L9.05136 14.5334L9.02807 14.5395L8.98094 14.5643L8.96578 14.5683L8.95902 14.569L8.94481 14.5784C8.93544 14.5834 8.92548 14.5875 8.91459 14.5906L8.89752 14.5946L8.86874 14.5979L8.72333 14.598L8.6227 14.5942C6.7357 14.5037 5.02036 13.3208 4.26793 11.6072C3.48308 9.82705 3.79325 7.72835 5.06124 6.24865C5.15014 6.15969 5.28679 6.09757 5.41338 6.08487L5.4638 6.08251ZM5.78808 7.10631L5.67374 7.09319L5.65815 7.11451C4.78647 8.30152 4.59558 9.84692 5.17145 11.1675C5.66964 12.2779 6.67705 13.1147 7.86091 13.4297L7.89044 13.4371L6.61395 10.5273C6.51529 10.264 6.61485 9.97638 6.85763 9.86213L6.89512 9.84632C7.13873 9.7549 7.40627 9.83374 7.53635 10.0492L7.55673 10.0863L8.84612 13.0259L8.8701 12.9816C9.4167 11.931 9.48384 10.665 9.03103 9.5789L8.99094 9.48625C8.42535 8.18925 7.20218 7.28861 5.78808 7.10631ZM16.9166 7.27982L17.0061 7.32178L17.0457 7.34399C17.1616 7.41606 17.2488 7.53587 17.2811 7.66544C17.6776 9.33173 17.0909 11.0929 15.78 12.1423C14.9962 12.7698 13.9988 13.1163 12.9919 13.1163C12.4073 13.1163 11.8547 13.012 11.329 12.7975L11.2168 12.7498L11.1248 12.7073L11.1104 12.7065C11.0985 12.7051 11.0864 12.702 11.073 12.6966L11.052 12.6866L11.0311 12.6743L11.0095 12.6687L10.9181 12.5771L10.8967 12.5534C10.8818 12.5357 10.8698 12.518 10.8578 12.4875L10.8488 12.462L10.8462 12.4425L10.8377 12.4256L10.8341 12.4164L10.83 12.4124L10.8213 12.3753L10.7998 12.2806C10.7742 12.1631 10.7538 12.045 10.7384 11.9266L10.7239 11.7993L10.6697 11.4783L10.7065 11.554L10.7052 11.5229C10.6592 10.2266 11.1931 8.92819 12.1687 8.01235L12.2488 7.93893L12.3229 7.874C13.6225 6.83358 15.4187 6.59884 16.9166 7.27982ZM13.1453 8.60421L13.0702 8.66068L12.9984 8.71792C12.2223 9.33919 11.7772 10.2687 11.7621 11.2581L11.762 11.2834L13.7506 9.664C13.9482 9.49919 14.2618 9.51988 14.4424 9.70039L14.4713 9.73195C14.6238 9.91507 14.6184 10.2 14.4663 10.3899L14.4361 10.4243L14.4022 10.4555L12.4184 12.0712L12.4445 12.0761C13.3753 12.2365 14.3406 12.008 15.0799 11.4355L15.1555 11.3751C16.0842 10.6126 16.5361 9.40208 16.3498 8.21554L16.3471 8.20008L16.3281 8.19261C15.2635 7.7863 14.0552 7.94072 13.1453 8.60421ZM11.605 0.456738L11.6462 0.475791L11.656 0.48119C13.0341 1.32394 13.8551 2.89743 13.7514 4.50885L13.7443 4.60185L13.7353 4.69402C13.5843 6.28098 12.5164 7.68939 11.0159 8.31367L10.9289 8.34881L10.8495 8.37869L10.8148 8.3939C10.7857 8.40501 10.7596 8.41093 10.729 8.41364L10.6967 8.41536L10.5413 8.41556L10.4872 8.40391L10.4648 8.39361L10.4175 8.37467L10.4083 8.3703L10.3864 8.35761L10.3715 8.34761L10.3693 8.34448L10.2907 8.29517C8.90675 7.40637 8.11178 5.77341 8.29136 4.15612C8.476 2.46691 9.61063 1.02189 11.1973 0.450244C11.3204 0.38866 11.4666 0.398078 11.605 0.456738ZM11.3296 1.49373L11.3167 1.4846L11.3056 1.48955C10.2124 1.97457 9.43801 3.03797 9.31821 4.23655C9.20833 5.20413 9.55169 6.17372 10.2423 6.90838L10.2584 6.92519L10.5118 4.37489C10.5118 4.10415 10.7606 3.89525 11.0166 3.90781L11.0515 3.91091C11.3041 3.91091 11.5053 4.12956 11.5167 4.38856L11.517 4.42769L11.5141 4.46459L11.2597 7.03148L11.2758 7.02091C12.0209 6.50025 12.5279 5.69329 12.6817 4.77912L12.6963 4.68418L12.7079 4.59335L12.7156 4.50593C12.8024 3.33219 12.2671 2.17241 11.3296 1.49373Z" fill="#777777"/>
</svg>
