<svg width="24" height="25" viewBox="0 0 24 25" fill="none" xmlns="http://www.w3.org/2000/svg">
<path fill-rule="evenodd" clip-rule="evenodd" d="M14.0835 0.674805C12.5486 0.674805 11.0907 1.22113 9.9413 2.2371C9.34661 2.01294 8.74702 1.88799 8.0967 1.88799C5.36938 1.88799 3.12088 4.07737 2.95922 6.7872C1.28421 7.10585 0 8.61378 0 10.433C0 12.2973 1.41368 13.8679 3.21604 14.0906L4.58257 16.4369L4.58478 16.4403C4.70829 16.6255 4.90368 16.7627 5.14286 16.7627C5.37045 16.7627 5.60214 16.6354 5.70697 16.4304L7.06439 14.1254H10.0785L11.4399 16.4372L11.4419 16.4403C11.5654 16.6255 11.7608 16.7627 12 16.7627C12.2276 16.7627 12.4593 16.6354 12.5641 16.4304L13.9215 14.1254H16.9356L18.297 16.4372L18.2991 16.4403C18.4226 16.6255 18.618 16.7627 18.8571 16.7627C19.0848 16.7627 19.3167 16.6353 19.4214 16.4301L20.784 14.0906C22.5863 13.8679 24 12.2973 24 10.433C24 8.42652 22.3863 6.76722 20.4079 6.74105C20.2361 3.35524 17.4632 0.674805 14.0835 0.674805ZM10.5899 3.51091C11.542 2.55886 12.8011 2.01986 14.1363 2.01986C16.9092 2.01986 19.1473 4.30544 19.1473 7.13634V7.40008C19.1473 7.56048 19.2093 7.74648 19.3055 7.8748L19.3111 7.8823L19.3177 7.88893C19.4496 8.02077 19.6157 8.08579 19.8066 8.08579H20.4132C21.6819 8.08579 22.7327 9.15665 22.7341 10.4568C22.6827 11.7338 21.6561 12.7811 20.3855 12.8067C20.1469 12.8072 19.952 12.9442 19.8287 13.1291L19.8266 13.1323L18.8571 14.7875L17.8877 13.1323L17.8855 13.1291C17.762 12.9439 17.5666 12.8067 17.3275 12.8067H13.5297C13.302 12.8067 13.0703 12.934 12.9655 13.1391L12 14.7875L11.0305 13.1323L11.0284 13.1291C10.9049 12.9439 10.7095 12.8067 10.4703 12.8067H6.67253C6.44488 12.8067 6.21313 12.934 6.10834 13.1391L5.14286 14.7875L4.17339 13.1323L4.17126 13.1291C4.04798 12.9442 3.85309 12.8072 3.61453 12.8067C2.34309 12.7811 1.31868 11.7335 1.31868 10.433C1.31868 9.13263 2.36914 8.05942 3.66593 8.05942C3.8568 8.05942 4.02294 7.9944 4.15478 7.86256C4.28414 7.7332 4.35504 7.56374 4.32527 7.36341V7.10997C4.32527 4.9657 6.03497 3.23305 8.14945 3.23305C8.73602 3.23305 9.29505 3.36035 9.82891 3.63999L9.83114 3.6411C10.0976 3.77431 10.3954 3.70547 10.5899 3.51091Z" fill="#777777"/>
<path fill-rule="evenodd" clip-rule="evenodd" d="M4.35165 18.0814C3.40849 18.0814 2.63736 18.8525 2.63736 19.7957V23.488C2.63736 23.8509 2.93376 24.1473 3.2967 24.1473H6.98901C7.35195 24.1473 7.64835 23.8509 7.64835 23.488V19.7957C7.64835 18.8525 6.87722 18.0814 5.93407 18.0814H4.35165ZM3.95604 19.7957C3.95604 19.5784 4.13437 19.4001 4.35165 19.4001H5.93407C6.15135 19.4001 6.32967 19.5784 6.32967 19.7957V22.8287H3.95604V19.7957Z" fill="#777777"/>
<path fill-rule="evenodd" clip-rule="evenodd" d="M11.2088 18.0814C10.2656 18.0814 9.49451 18.8525 9.49451 19.7957V23.488C9.49451 23.8509 9.79091 24.1473 10.1538 24.1473H13.8462C14.2091 24.1473 14.5055 23.8509 14.5055 23.488V19.7957C14.5055 18.8525 13.7344 18.0814 12.7912 18.0814H11.2088ZM10.8132 19.7957C10.8132 19.5784 10.9915 19.4001 11.2088 19.4001H12.7912C13.0085 19.4001 13.1868 19.5784 13.1868 19.7957V22.8287H10.8132V19.7957Z" fill="#777777"/>
<path fill-rule="evenodd" clip-rule="evenodd" d="M18.0659 18.0814C17.1228 18.0814 16.3516 18.8525 16.3516 19.7957V23.488C16.3516 23.8509 16.6481 24.1473 17.011 24.1473H20.7033C21.0662 24.1473 21.3626 23.8509 21.3626 23.488V19.7957C21.3626 18.8525 20.5915 18.0814 19.6484 18.0814H18.0659ZM17.6703 19.7957C17.6703 19.5784 17.8487 19.4001 18.0659 19.4001H19.6484C19.8656 19.4001 20.044 19.5784 20.044 19.7957V22.8287H17.6703V19.7957Z" fill="#777777"/>
</svg>
